<?xml version="1.0" encoding="UTF-8"?>
<svg xmlns="http://www.w3.org/2000/svg" xmlns:xlink="http://www.w3.org/1999/xlink" version="1.2" >
<font id="Rois Medium">
<font-face  font-family="Rois" units-per-em="1000" ascent="720" descent="-280" font-style="normal" font-weight="500" font-stretch="expanded" cap-height="720" x-height="545" underline-position="-75" underline-thickness="50" />
<missing-glyph  horiz-adv-x="809" d="M804 720 L804 0 L6 0 L6 720 L804 720 Z M405 402 L698 660 L112 660 L405 402 Z M66 621 L66 102 L360 362 L66 621 Z M744 102 L744 621 L450 362 L744 102 Z M108 60 L702 60 L405 322 L108 60 Z " />
<glyph glyph-name="space" unicode="&#x20;" horiz-adv-x="300" d="" />
<glyph glyph-name="exclam" unicode="&#x21;" horiz-adv-x="327" d="M81 720 L248 720 L218 213 Q193 228 165 228 Q137 228 111 212 L81 720 Z M164 0 Q127 0 101 26 Q75 52 75 89 Q75 125 101 150.5 Q127 176 164 176 Q200 176 226 150.5 Q252 125 252 89 Q252 52 226 26 Q200 0 164 0 Z " />
<glyph glyph-name="quotedbl" unicode="&#x22;" horiz-adv-x="447" d="M50 720 L175 720 L131 480 L95 480 L50 720 Z M272 720 L397 720 L352 480 L316 480 L272 720 Z " />
<glyph glyph-name="numbersign" unicode="&#x23;" horiz-adv-x="953" d="M689 454 L644 288 L843 288 L830 228 L628 228 L563 -15 L502 -15 L567 228 L301 228 L236 -15 L176 -15 L241 228 L50 228 L63 288 L257 288 L302 454 L110 454 L123 514 L318 514 L373 720 L434 720 L379 514 L645 514 L700 720 L760 720 L705 514 L903 514 L890 454 L689 454 Z M628 454 L362 454 L318 288 L584 288 L628 454 Z " />
<glyph glyph-name="dollar" unicode="&#x24;" horiz-adv-x="919" d="M484 437 Q601 434 683.5 414 Q766 394 815 345.5 Q864 297 864 211 Q864 138 817 87.5 Q770 37 685.5 11 Q601 -15 490 -15 L484 -15 L484 -67 L424 -67 L424 -13 Q308 -5 208.5 27.5 Q109 60 55 107 L92 249 Q167 198 247 170 Q327 142 424 134 L424 288 Q247 295 160.5 352 Q74 409 74 518 Q74 627 168 681 Q262 735 421 735 L424 735 L424 790 L484 790 L484 733 Q695 721 847 616 L811 472 Q746 518 661.5 546.5 Q577 575 484 585 L484 437 Z M239 518 Q239 478 283 460.5 Q327 443 424 438 L424 589 Q411 590 385 590 Q322 590 280.5 572.5 Q239 555 239 518 Z M520 130 Q615 130 657 153 Q699 176 699 211 Q699 243 671.5 259 Q644 275 602 279.5 Q560 284 484 286 L484 130 L520 130 Z " />
<glyph glyph-name="percent" unicode="&#x25;" horiz-adv-x="1023" d="M272 352 Q206 352 155.5 376 Q105 400 77.5 443.5 Q50 487 50 544 Q50 600 77.5 643 Q105 686 155 710.5 Q205 735 270 735 Q336 735 386.5 711.5 Q437 688 465 644.5 Q493 601 493 544 Q493 457 432.5 404.5 Q372 352 272 352 Z M159 43 L827 720 L870 677 L202 0 L159 43 Z M272 429 Q333 429 369.5 461 Q406 493 406 546 Q406 596 368.5 626.5 Q331 657 271 657 Q211 657 173.5 626 Q136 595 136 544 Q136 492 173 460.5 Q210 429 272 429 Z M752 -15 Q686 -15 635.5 9 Q585 33 557.5 76.5 Q530 120 530 177 Q530 233 557.5 276 Q585 319 635 343.5 Q685 368 750 368 Q816 368 866.5 344.5 Q917 321 945 277.5 Q973 234 973 177 Q973 90 912.5 37.5 Q852 -15 752 -15 Z M752 62 Q813 62 849.5 94 Q886 126 886 179 Q886 229 848.5 259.5 Q811 290 751 290 Q691 290 653.5 259 Q616 228 616 177 Q616 125 653 93.5 Q690 62 752 62 Z " />
<glyph glyph-name="ampersand" unicode="&#x26;" horiz-adv-x="1016" d="M966 112 L966 0 L954 0 Q799 0 667 53 Q589 19 507.5 1.5 Q426 -16 351 -16 Q237 -16 157.5 21 Q78 58 59 124 Q49 161 49 186 Q49 268 115 323.5 Q181 379 294 409 Q262 484 262 544 Q262 632 327.5 683.5 Q393 735 517 735 Q596 735 651 710 Q706 685 733.5 641.5 Q761 598 761 545 Q761 469 698 417 Q635 365 492 339 Q567 242 674 184 Q724 223 761.5 285 Q799 347 814 414 L911 359 Q897 300 865 240.5 Q833 181 792 137 Q867 115 954 112 L966 112 Z M517 633 Q460 633 431 607.5 Q402 582 402 537 Q402 493 431 433 Q501 443 537 452 Q573 461 594.5 482 Q616 503 616 542 Q616 633 517 633 Z M220 161 Q231 125 272.5 104.5 Q314 84 375 84 Q457 84 543 117 Q427 193 344 317 Q213 288 213 202 Q213 182 220 161 Z " />
<glyph glyph-name="quoteright" unicode="&#x2019;" horiz-adv-x="282" d="M94 720 L227 720 L92 467 L55 467 L94 720 Z " />
<glyph glyph-name="parenleft" unicode="&#x28;" horiz-adv-x="416" d="M366 -64 Q224 -15 137 90 Q50 195 50 360 Q50 525 137 630 Q224 735 366 784 L366 720 Q248 669 179 584.5 Q110 500 110 360 Q110 220 179 135.5 Q248 51 366 0 L366 -64 Z " />
<glyph glyph-name="parenright" unicode="&#x29;" horiz-adv-x="416" d="M50 0 Q168 51 237 135.5 Q306 220 306 360 Q306 500 237 584.5 Q168 669 50 720 L50 784 Q192 735 279 630 Q366 525 366 360 Q366 195 279 90 Q192 -15 50 -64 L50 0 Z " />
<glyph glyph-name="asterisk" unicode="&#x2a;" horiz-adv-x="454" d="M110 427 L174 528 L55 528 L55 590 L175 590 L114 692 L166 724 L227 620 L288 724 L341 691 L280 590 L399 590 L399 528 L281 528 L341 426 L288 394 L227 499 L164 394 L110 427 Z " />
<glyph glyph-name="plus" unicode="&#x2b;" horiz-adv-x="750" d="M700 271 L405 271 L405 0 L344 0 L344 271 L50 271 L50 331 L344 331 L344 570 L405 570 L405 331 L700 331 L700 271 Z " />
<glyph glyph-name="comma" unicode="&#x2c;" horiz-adv-x="282" d="M94 126 L227 126 L92 -127 L55 -127 L94 126 Z " />
<glyph glyph-name="hyphen" unicode="&#x2d;" horiz-adv-x="700" d="M150 331 L550 331 L550 271 L150 271 L150 331 Z " />
<glyph glyph-name="period" unicode="&#x2e;" horiz-adv-x="277" d="M139 0 Q102 0 76 26 Q50 52 50 89 Q50 125 76 150.5 Q102 176 139 176 Q175 176 201 150.5 Q227 125 227 89 Q227 52 201 26 Q175 0 139 0 Z " />
<glyph glyph-name="slash" unicode="&#x2f;" horiz-adv-x="514" d="M50 -154 L410 736 L464 710 L105 -177 L50 -154 Z " />
<glyph glyph-name="zero" unicode="0" horiz-adv-x="949" d="M475 -15 Q353 -15 259 29 Q165 73 112.5 158 Q60 243 60 362 Q60 479 113 563 Q166 647 260 691 Q354 735 475 735 Q597 735 690.5 691.5 Q784 648 836.5 563.5 Q889 479 889 362 Q889 243 837 158 Q785 73 691 29 Q597 -15 475 -15 Z M475 135 Q586 135 655 193.5 Q724 252 724 361 Q724 469 654.5 527 Q585 585 474 585 Q363 585 294 526.5 Q225 468 225 361 Q225 251 294 193 Q363 135 475 135 Z " />
<glyph glyph-name="one" unicode="1" horiz-adv-x="781" d="M731 140 L731 0 L50 0 L50 140 L310 140 L310 504 L52 321 L52 493 L385 720 L470 720 L470 140 L731 140 Z " />
<glyph glyph-name="two" unicode="2" horiz-adv-x="899" d="M485 269 Q384 260 331.5 246.5 Q279 233 256.5 208.5 Q234 184 231 140 L826 140 L826 0 L61 0 L60 117 Q59 247 154.5 320.5 Q250 394 447 416 Q539 426 586 434.5 Q633 443 658.5 460 Q684 477 684 507 L683 517 Q679 548 637.5 567 Q596 586 514 586 Q446 586 367 568 Q288 550 217 518 Q146 486 102 445 L55 590 Q127 656 255 696 Q383 736 513 736 Q668 736 754 681.5 Q840 627 848 533 Q849 524 849 506 Q849 428 809.5 380 Q770 332 691.5 306 Q613 280 485 269 Z " />
<glyph glyph-name="three" unicode="3" horiz-adv-x="896" d="M758 361 Q801 339 823.5 301.5 Q846 264 846 220 Q846 105 740 45 Q634 -15 434 -15 Q316 -15 218.5 12.5 Q121 40 50 96 L105 226 Q162 178 246.5 153.5 Q331 129 437 129 Q681 129 681 220 Q681 261 630.5 277 Q580 293 462 293 L344 293 L344 431 L520 431 Q600 431 635 446.5 Q670 462 670 498 Q670 545 608 568 Q546 591 433 591 Q222 591 103 496 L54 628 Q192 735 431 735 Q625 735 730 673.5 Q835 612 835 498 Q835 450 817 416.5 Q799 383 758 361 Z " />
<glyph glyph-name="four" unicode="4" horiz-adv-x="984" d="M934 333 L934 193 L714 193 L714 -1 L554 -1 L554 193 L50 193 L50 330 Q171 371 292.5 484.5 Q414 598 501 722 L714 723 L714 333 L934 333 Z M554 333 L554 569 Q508 507 445.5 442 Q383 377 329 333 L554 333 Z " />
<glyph glyph-name="five" unicode="5" horiz-adv-x="900" d="M520 -15 Q395 -15 265 21.5 Q135 58 50 117 L96 259 Q180 203 302 169.5 Q424 136 528 136 Q603 136 649 155 Q695 174 695 212 Q695 267 599.5 295.5 Q504 324 325 324 L142 324 L142 720 L831 720 L831 580 L302 580 L302 473 Q513 473 634 446.5 Q755 420 807.5 363.5 Q860 307 860 212 Q860 97 764.5 41 Q669 -15 520 -15 Z " />
<glyph glyph-name="six" unicode="6" horiz-adv-x="982" d="M481 476 Q623 476 721 446 Q819 416 868 360.5 Q917 305 917 230 Q917 -15 481 -15 Q246 -15 140.5 74.5 Q35 164 35 345 Q35 465 88.5 553 Q142 641 242.5 688 Q343 735 481 735 Q588 735 699.5 708.5 Q811 682 889 631 L856 478 Q711 585 481 585 Q364 585 290 540.5 Q216 496 206 400 Q251 433 329 454.5 Q407 476 481 476 Z M481 135 Q606 135 679 157.5 Q752 180 752 230 Q752 279 678 302.5 Q604 326 481 326 Q386 326 314.5 302.5 Q243 279 203 238 Q235 182 307 158.5 Q379 135 481 135 Z " />
<glyph glyph-name="seven" unicode="7" horiz-adv-x="814" d="M779 722 L779 623 L709 574 Q600 500 532.5 437.5 Q465 375 415.5 267.5 Q366 160 361 0 L196 0 Q203 210 293 358.5 Q383 507 547 582 L30 582 L30 722 L779 722 Z " />
<glyph glyph-name="eight" unicode="8" horiz-adv-x="930" d="M775 375 Q828 361 860.5 316.5 Q893 272 893 211 Q893 143 843.5 92 Q794 41 697.5 13 Q601 -15 465 -15 Q329 -15 232.5 13 Q136 41 86.5 92 Q37 143 37 211 Q37 273 69 317.5 Q101 362 155 375 Q112 392 89.5 430 Q67 468 67 516 Q67 616 167.5 675.5 Q268 735 465 735 Q662 735 762.5 675.5 Q863 616 863 516 Q863 469 840.5 430.5 Q818 392 775 375 Z M465 592 Q352 592 292 572 Q232 552 232 516 Q232 436 465 436 Q698 436 698 516 Q698 552 638 572 Q578 592 465 592 Z M465 128 Q590 128 659 149 Q728 170 728 211 Q728 251 659 272 Q590 293 465 293 Q340 293 271 272 Q202 251 202 211 Q202 170 271 149 Q340 128 465 128 Z " />
<glyph glyph-name="nine" unicode="9" horiz-adv-x="952" d="M471 735 Q699 735 808 644.5 Q917 554 917 375 Q917 254 866 166 Q815 78 715 31.5 Q615 -15 471 -15 Q363 -15 238.5 16 Q114 47 35 100 L69 251 Q149 192 257.5 163.5 Q366 135 471 135 Q596 135 666.5 178.5 Q737 222 746 320 Q702 287 623.5 265.5 Q545 244 471 244 Q329 244 231 274 Q133 304 84 359.5 Q35 415 35 490 Q35 615 149.5 675 Q264 735 471 735 Z M200 490 Q200 441 274 417.5 Q348 394 471 394 Q566 394 637.5 418 Q709 442 749 484 Q690 585 471 585 Q336 585 268 563 Q200 541 200 490 Z " />
<glyph glyph-name="colon" unicode="&#x3a;" horiz-adv-x="273" d="M139 269 Q102 269 76 295 Q50 321 50 358 Q50 394 76 419.5 Q102 445 139 445 Q175 445 201 419.5 Q227 394 227 358 Q227 321 201 295 Q175 269 139 269 Z M139 0 Q102 0 76 26 Q50 52 50 89 Q50 125 76 150.5 Q102 176 139 176 Q175 176 201 150.5 Q227 125 227 89 Q227 52 201 26 Q175 0 139 0 Z " />
<glyph glyph-name="semicolon" unicode="&#x3b;" horiz-adv-x="298" d="M155 269 Q118 269 92 295 Q66 321 66 358 Q66 394 92 419.5 Q118 445 155 445 Q191 445 217 419.5 Q243 394 243 358 Q243 321 217 295 Q191 269 155 269 Z M84 126 L217 126 L82 -127 L45 -127 L84 126 Z " />
<glyph glyph-name="less" unicode="&#x3c;" horiz-adv-x="597" d="M50 258 L50 307 L512 585 L512 515 L127 283 L512 54 L512 -15 L50 258 Z " />
<glyph glyph-name="equal" unicode="&#x3d;" horiz-adv-x="696" d="M50 445 L646 445 L646 385 L50 385 L50 445 Z M50 280 L646 280 L646 220 L50 220 L50 280 Z " />
<glyph glyph-name="greater" unicode="&#x3e;" horiz-adv-x="597" d="M85 54 L470 283 L85 515 L85 585 L547 307 L547 258 L85 -15 L85 54 Z " />
<glyph glyph-name="question" unicode="&#x3f;" horiz-adv-x="781" d="M333 224 Q333 282 355.5 323.5 Q378 365 409 390 Q440 415 487 445 Q527 470 545.5 486.5 Q564 503 564 524 Q564 535 560 544 Q551 566 527 576 Q503 586 456 586 Q371 586 267 551.5 Q163 517 94 455 L55 607 Q131 665 243 699.5 Q355 734 456 734 Q563 734 626 703 Q689 672 715 603 Q726 573 726 544 Q726 506 705.5 476 Q685 446 655.5 424 Q626 402 578 374 Q532 346 505.5 326.5 Q479 307 460.5 281 Q442 255 442 223 L442 210 Q412 224 387 224 Q363 224 333 210 L333 224 Z M388 0 Q351 0 325 26 Q299 52 299 89 Q299 125 325 150.5 Q351 176 388 176 Q424 176 450 150.5 Q476 125 476 89 Q476 52 450 26 Q424 0 388 0 Z " />
<glyph glyph-name="at" unicode="&#x40;" horiz-adv-x="1077" d="M539 732 Q671 732 783.5 673 Q896 614 961.5 513.5 Q1027 413 1027 294 Q1027 224 1002 155 L966 176 Q986 233 986 294 Q986 403 925.5 495 Q865 587 762.5 641 Q660 695 539 695 Q418 695 315 641 Q212 587 151.5 495 Q91 403 91 294 Q91 185 151.5 92.5 Q212 0 314.5 -54 Q417 -108 539 -108 Q624 -108 702 -80 Q752 -61 776 -29 Q800 3 800 39 Q800 66 787 90 Q774 114 752 128 Q712 81 654.5 59.5 Q597 38 510 38 Q383 38 314.5 82 Q246 126 246 209 Q246 262 283 301 Q320 340 382.5 360.5 Q445 381 520 381 Q652 381 724 322 Q720 385 664.5 412.5 Q609 440 523 440 Q459 440 401.5 426.5 Q344 413 298 390 L252 500 Q369 558 530 558 Q622 558 699.5 533.5 Q777 509 824 459.5 Q871 410 871 339 L871 160 Q871 48 836.5 -15 Q802 -78 715 -115 Q633 -145 539 -145 Q406 -145 294 -86 Q182 -27 116 74 Q50 175 50 294 Q50 413 116 513.5 Q182 614 294 673 Q406 732 539 732 Z M529 152 Q591 152 640.5 167 Q690 182 724 209 Q690 237 640.5 252 Q591 267 529 267 Q472 267 431.5 253.5 Q391 240 391 209 Q391 178 431.5 165 Q472 152 529 152 Z " />
<glyph glyph-name="A" unicode="A" horiz-adv-x="1067" d="M758 183 L309 183 L201 0 L15 0 L443 720 L623 720 L1052 0 L866 0 L758 183 Z M390 323 L676 323 L533 562 L390 323 Z " />
<glyph glyph-name="B" unicode="B" horiz-adv-x="858" d="M706 365 Q760 350 791.5 303.5 Q823 257 823 207 Q823 102 752.5 51 Q682 0 539 0 L50 0 L50 720 L503 720 Q646 720 724 672.5 Q802 625 802 513 Q802 406 706 365 Z M210 428 L443 428 Q520 428 556 431 Q592 434 614.5 450.5 Q637 467 637 504 Q637 541 614.5 557.5 Q592 574 556 577 Q520 580 443 580 L210 580 L210 428 Z M457 140 Q532 140 570.5 143.5 Q609 147 633 163.5 Q657 180 657 217 Q657 254 633 270 Q609 286 571.5 289.5 Q534 293 457 293 L210 293 L210 140 L457 140 Z " />
<glyph glyph-name="C" unicode="C" horiz-adv-x="914" d="M503 -15 Q370 -15 267.5 30 Q165 75 107.5 159.5 Q50 244 50 360 Q50 474 108.5 559 Q167 644 269.5 689.5 Q372 735 503 735 Q604 735 711 705 Q818 675 884 616 L827 481 Q770 529 688.5 557.5 Q607 586 531 586 Q382 586 298.5 526.5 Q215 467 215 360 Q215 291 253 240 Q291 189 360.5 162 Q430 135 522 135 Q598 135 678.5 157 Q759 179 829 226 L884 96 Q809 35 704.5 10 Q600 -15 503 -15 Z " />
<glyph glyph-name="D" unicode="D" horiz-adv-x="917" d="M429 720 Q647 720 764 627.5 Q881 535 882 359 Q881 183 764 91.5 Q647 0 428 0 L50 0 L50 720 L429 720 Z M409 140 Q565 140 641 194.5 Q717 249 717 359 Q717 469 641 524.5 Q565 580 409 580 L210 580 L210 140 L409 140 Z " />
<glyph glyph-name="E" unicode="E" horiz-adv-x="832" d="M50 720 L782 720 L782 580 L210 580 L210 428 L782 428 L782 293 L210 293 L210 140 L782 140 L782 0 L50 0 L50 720 Z " />
<glyph glyph-name="F" unicode="F" horiz-adv-x="819" d="M50 720 L768 720 L768 580 L210 580 L210 419 L769 419 L769 279 L210 279 L210 0 L50 0 L50 720 Z " />
<glyph glyph-name="G" unicode="G" horiz-adv-x="979" d="M929 403 L929 57 Q744 -15 537 -15 Q384 -15 274.5 29 Q165 73 107.5 157.5 Q50 242 50 362 Q50 474 110.5 558.5 Q171 643 281.5 689 Q392 735 537 735 Q641 735 735.5 714.5 Q830 694 916 638 L856 501 Q717 586 546 586 Q447 586 372 558.5 Q297 531 256 480.5 Q215 430 215 363 Q215 250 299.5 192.5 Q384 135 553 135 Q678 135 769 161 L769 263 L526 263 L526 403 L929 403 Z " />
<glyph glyph-name="H" unicode="H" horiz-adv-x="947" d="M50 720 L210 720 L210 430 L737 430 L737 720 L897 720 L897 0 L737 0 L737 290 L210 290 L210 0 L50 0 L50 720 Z " />
<glyph glyph-name="I" unicode="I" horiz-adv-x="820" d="M490 580 L490 140 L770 140 L770 0 L50 0 L50 140 L330 140 L330 580 L50 580 L50 720 L770 720 L770 580 L490 580 Z " />
<glyph glyph-name="J" unicode="J" horiz-adv-x="793" d="M421 -15 Q324 -15 225 13.5 Q126 42 50 94 L66 237 Q139 201 245.5 170 Q352 139 437 139 Q511 139 554.5 168.5 Q598 198 598 263 L598 580 L64 580 L64 720 L758 720 L758 235 Q758 154 713 98 Q668 42 591 13.5 Q514 -15 421 -15 Z " />
<glyph glyph-name="K" unicode="K" horiz-adv-x="920" d="M408 413 L210 264 L210 -2 L50 -2 L50 722 L210 722 L210 439 L590 722 L824 722 L536 507 L895 0 L697 0 L408 413 Z " />
<glyph glyph-name="L" unicode="L" horiz-adv-x="810" d="M50 720 L210 720 L210 140 L775 140 L775 0 L50 0 L50 720 Z " />
<glyph glyph-name="M" unicode="M" horiz-adv-x="1069" d="M1019 720 L1019 0 L859 0 L859 515 L627 0 L443 0 L210 515 L210 0 L50 0 L50 720 L284 720 L535 167 L785 720 L1019 720 Z " />
<glyph glyph-name="N" unicode="N" horiz-adv-x="941" d="M891 720 L891 0 L759 0 L210 487 L210 0 L50 0 L50 720 L182 720 L731 233 L731 720 L891 720 Z " />
<glyph glyph-name="O" unicode="O" horiz-adv-x="969" d="M485 -15 Q355 -15 256.5 30 Q158 75 104 160 Q50 245 50 361 Q50 475 104.5 559.5 Q159 644 257.5 689.5 Q356 735 484 735 Q613 735 711.5 689.5 Q810 644 864.5 559.5 Q919 475 919 361 Q919 245 865 160 Q811 75 713 30 Q615 -15 485 -15 Z M485 135 Q564 135 625 162 Q686 189 720 240 Q754 291 754 361 Q754 430 719.5 480.5 Q685 531 624 558 Q563 585 484 585 Q405 585 344 558 Q283 531 249 480.5 Q215 430 215 361 Q215 291 249 240 Q283 189 344 162 Q405 135 485 135 Z " />
<glyph glyph-name="P" unicode="P" horiz-adv-x="841" d="M50 720 L513 720 Q653 720 729.5 659.5 Q806 599 806 493 Q806 397 745 331 Q684 265 513 265 L210 265 L210 0 L50 0 L50 720 Z M442 405 Q519 405 557 409 Q595 413 618 432 Q641 451 641 493 Q641 534 618 553 Q595 572 557 576 Q519 580 442 580 L210 580 L210 405 L442 405 Z " />
<glyph glyph-name="Q" unicode="Q" horiz-adv-x="969" d="M919 361 Q919 272 886.5 200 Q854 128 793 79 L840 25 L795 -15 L743 45 Q635 -15 485 -15 Q355 -15 256.5 30 Q158 75 104 160 Q50 245 50 361 Q50 475 104.5 559.5 Q159 644 257.5 689.5 Q356 735 484 735 Q613 735 711.5 689.5 Q810 644 864.5 559.5 Q919 475 919 361 Z M485 135 Q574 135 637 168 L540 280 L585 319 L687 202 Q754 263 754 361 Q754 430 719.5 480.5 Q685 531 624 558 Q563 585 484 585 Q405 585 344 558 Q283 531 249 480.5 Q215 430 215 361 Q215 291 249 240 Q283 189 344 162 Q405 135 485 135 Z " />
<glyph glyph-name="R" unicode="R" horiz-adv-x="836" d="M811 0 L616 0 L594 32 Q542 107 516 138 Q449 215 375.5 245.5 Q302 276 210 275 L210 0 L50 0 L50 720 L512 720 Q649 720 727.5 661 Q806 602 806 497 Q806 297 539 278 Q589 257 645 205.5 Q701 154 741 99 L811 0 Z M442 412 Q519 412 557 416 Q595 420 618 438 Q641 456 641 497 Q641 536 617.5 554 Q594 572 555.5 576 Q517 580 441 580 L210 580 L210 412 L442 412 Z " />
<glyph glyph-name="S" unicode="S" horiz-adv-x="919" d="M490 -15 Q356 -15 236 19 Q116 53 55 107 L92 249 Q184 186 285 158 Q386 130 520 130 Q615 130 657 153 Q699 176 699 211 Q699 244 670.5 259.5 Q642 275 599.5 279.5 Q557 284 477 287 Q445 287 429 288 Q249 294 161.5 351 Q74 408 74 518 Q74 627 168 681 Q262 735 421 735 Q676 735 847 616 L811 472 Q728 531 616 560.5 Q504 590 385 590 Q322 590 280.5 572.5 Q239 555 239 518 Q239 474 293 456.5 Q347 439 469 437 Q591 435 676.5 416 Q762 397 813 347.5 Q864 298 864 211 Q864 138 817 87.5 Q770 37 685.5 11 Q601 -15 490 -15 Z " />
<glyph glyph-name="T" unicode="T" horiz-adv-x="945" d="M895 580 L552 580 L552 0 L392 0 L392 580 L50 580 L50 720 L895 720 L895 580 Z " />
<glyph glyph-name="U" unicode="U" horiz-adv-x="920" d="M460 -15 Q335 -15 242.5 25 Q150 65 100 142 Q50 219 50 328 L50 720 L210 720 L210 368 Q210 279 236.5 228.5 Q263 178 317 156.5 Q371 135 460 135 Q549 135 603 156.5 Q657 178 683.5 228.5 Q710 279 710 368 L710 720 L870 720 L870 328 Q870 219 820 142 Q770 65 677.5 25 Q585 -15 460 -15 Z " />
<glyph glyph-name="V" unicode="V" horiz-adv-x="986" d="M961 720 L584 0 L402 0 L25 720 L204 720 L493 170 L782 720 L961 720 Z " />
<glyph glyph-name="W" unicode="W" horiz-adv-x="1419" d="M1394 720 L1098 0 L913 0 L709 493 L506 0 L321 0 L25 720 L199 720 L414 196 L629 722 L790 722 L1005 196 L1220 720 L1394 720 Z " />
<glyph glyph-name="X" unicode="X" horiz-adv-x="1029" d="M796 0 L514 282 L233 0 L15 0 L406 391 L77 720 L294 720 L515 500 L735 720 L951 720 L623 391 L1014 0 L796 0 Z " />
<glyph glyph-name="Y" unicode="Y" horiz-adv-x="936" d="M388 253 L20 720 L217 720 L468 395 L719 720 L916 720 L548 253 L548 0 L388 0 L388 253 Z " />
<glyph glyph-name="Z" unicode="Z" horiz-adv-x="904" d="M854 140 L854 0 L50 0 L50 117 L607 580 L50 580 L50 720 L852 720 L852 605 L299 140 L854 140 Z " />
<glyph glyph-name="bracketleft" unicode="&#x5b;" horiz-adv-x="291" d="M70 780 L241 780 L241 720 L130 720 L130 0 L241 0 L241 -50 L70 -50 L70 780 Z " />
<glyph glyph-name="backslash" unicode="&#x5c;" horiz-adv-x="514" d="M50 710 L104 736 L464 -154 L409 -177 L50 710 Z " />
<glyph glyph-name="bracketright" unicode="&#x5d;" horiz-adv-x="291" d="M50 0 L161 0 L161 720 L50 720 L50 780 L221 780 L221 -50 L50 -50 L50 0 Z " />
<glyph glyph-name="asciicircum" unicode="&#x5e;" horiz-adv-x="529" d="M423 408 L265 659 L106 408 L35 408 L241 735 L288 735 L494 408 L423 408 Z " />
<glyph glyph-name="underscore" unicode="&#x5f;" horiz-adv-x="600" d="M0 -127 L600 -127 L600 -187 L0 -187 L0 -127 Z " />
<glyph glyph-name="quoteleft" unicode="&#x2018;" horiz-adv-x="282" d="M190 720 L227 720 L188 467 L55 467 L190 720 Z " />
<glyph glyph-name="a" unicode="a" horiz-adv-x="789" d="M363 560 Q465 560 550.5 533 Q636 506 687.5 451.5 Q739 397 739 318 L739 0 L630 0 L596 72 Q553 28 492 7 Q431 -14 341 -14 Q201 -14 125.5 34.5 Q50 83 50 175 Q50 235 92 277.5 Q134 320 204.5 342 Q275 364 359 364 Q496 364 577 300 Q573 370 511.5 400 Q450 430 355 430 Q285 430 221.5 415 Q158 400 107 374 L57 496 Q186 560 363 560 Z M210 175 Q210 141 254 126.5 Q298 112 362 112 Q500 112 577 175 Q539 206 484.5 222.5 Q430 239 362 239 Q299 239 254.5 224 Q210 209 210 175 Z " />
<glyph glyph-name="b" unicode="b" horiz-adv-x="784" d="M435 561 Q532 561 604.5 524 Q677 487 715.5 422 Q754 357 754 276 Q754 191 716 125 Q678 59 606 22 Q534 -15 435 -15 Q361 -15 298 14.5 Q235 44 203 95 L158 0 L50 0 L50 720 L210 720 L210 455 Q241 509 299 535 Q357 561 435 561 Z M394 105 Q489 105 541.5 151.5 Q594 198 594 276 Q594 350 540.5 395.5 Q487 441 394 441 Q339 441 297.5 419.5 Q256 398 233 360.5 Q210 323 210 276 Q210 199 260 152 Q310 105 394 105 Z " />
<glyph glyph-name="c" unicode="c" horiz-adv-x="725" d="M396 -15 Q285 -15 202.5 19.5 Q120 54 75 119.5 Q30 185 30 273 Q30 360 75 425 Q120 490 203 525.5 Q286 561 396 561 Q484 561 564.5 541 Q645 521 690 489 L645 361 Q595 390 532 408 Q469 426 413 426 Q313 426 251.5 384 Q190 342 190 273 Q190 228 218 193.5 Q246 159 296.5 140 Q347 121 413 121 Q468 121 533.5 137.5 Q599 154 645 181 L690 57 Q645 24 565.5 4.5 Q486 -15 396 -15 Z " />
<glyph glyph-name="d" unicode="d" horiz-adv-x="789" d="M739 720 L739 0 L631 0 L586 95 Q554 44 491 14.5 Q428 -15 354 -15 Q255 -15 183 22 Q111 59 73 125 Q35 191 35 276 Q35 357 73.5 422 Q112 487 184.5 524 Q257 561 354 561 Q432 561 490 535 Q548 509 579 455 L579 720 L739 720 Z M395 105 Q479 105 529 152 Q579 199 579 276 Q579 323 556 360.5 Q533 398 491.5 419.5 Q450 441 395 441 Q302 441 248.5 395.5 Q195 350 195 276 Q195 198 247.5 151.5 Q300 105 395 105 Z " />
<glyph glyph-name="e" unicode="e" horiz-adv-x="793" d="M390 560 Q744 560 743 217 L189 217 Q203 166 257 140.5 Q311 115 390 115 Q479 115 541.5 129 Q604 143 649 173 L709 69 Q650 25 570.5 5 Q491 -15 389 -15 Q279 -15 198 19.5 Q117 54 73.5 118.5 Q30 183 30 270 Q30 398 117 479 Q204 560 390 560 Z M390 430 Q212 430 191 337 L581 337 Q570 384 523.5 407 Q477 430 390 430 Z " />
<glyph glyph-name="f" unicode="f" horiz-adv-x="627" d="M165 425 L35 425 L36 545 L166 545 Q166 618 196.5 668.5 Q227 719 279 744.5 Q331 770 395 770 Q445 770 497.5 755.5 Q550 741 592 712 L545 590 Q519 611 485 623 Q451 635 419 635 Q377 635 351 613 Q325 591 325 545 L475 545 L475 425 L325 425 L325 0 L165 0 L165 425 Z " />
<glyph glyph-name="g" unicode="g" horiz-adv-x="821" d="M771 545 L771 128 Q771 45 726.5 -16 Q682 -77 599 -109.5 Q516 -142 403 -142 Q293 -142 199 -116 Q105 -90 46 -41 L86 80 Q227 -12 409 -12 Q468 -12 514 4.5 Q560 21 585.5 50.5 Q611 80 611 117 L611 167 Q576 124 515 99 Q454 74 363 74 Q260 74 187 107 Q114 140 77 195 Q40 250 40 317 Q40 387 76 442 Q112 497 185 528.5 Q258 560 363 560 Q451 560 515 535 Q579 510 619 453 L654 545 L771 545 Z M395 204 Q481 204 538 234.5 Q595 265 611 317 Q595 369 538 399.5 Q481 430 395 430 Q297 430 248.5 397.5 Q200 365 200 317 Q200 269 248.5 236.5 Q297 204 395 204 Z " />
<glyph glyph-name="h" unicode="h" horiz-adv-x="763" d="M433 561 Q568 561 640.5 490.5 Q713 420 713 283 L713 0 L553 0 L553 270 Q553 356 513.5 398.5 Q474 441 398 441 Q337 441 287.5 417.5 Q238 394 210 355 L210 0 L50 0 L50 720 L210 720 L210 450 Q247 498 303.5 529.5 Q360 561 433 561 Z " />
<glyph glyph-name="i" unicode="i" horiz-adv-x="288" d="M144 575 Q105 575 77.5 602.5 Q50 630 50 669 Q50 708 77.5 735.5 Q105 763 144 763 Q183 763 210.5 735.5 Q238 708 238 669 Q238 630 210.5 602.5 Q183 575 144 575 Z M65 545 Q100 526 145 526 Q191 526 225 545 L225 0 L65 0 L65 545 Z " />
<glyph glyph-name="j" unicode="j" horiz-adv-x="543" d="M399 575 Q360 575 332.5 602.5 Q305 630 305 669 Q305 708 332.5 735.5 Q360 763 399 763 Q438 763 465.5 735.5 Q493 708 493 669 Q493 630 465.5 602.5 Q438 575 399 575 Z M174 -142 Q118 -142 73 -128 Q28 -114 0 -95 L42 22 Q65 8 100 -1.5 Q135 -11 159 -11 Q233 -11 276.5 26.5 Q320 64 320 129 L320 545 Q354 526 400 526 Q446 526 480 545 L480 139 Q480 7 398.5 -67.5 Q317 -142 174 -142 Z " />
<glyph glyph-name="k" unicode="k" horiz-adv-x="720" d="M505 0 L321 221 L210 221 L210 0 L50 0 L50 720 L210 720 L210 322 L454 544 L671 544 L430 325 L700 0 L505 0 Z " />
<glyph glyph-name="l" unicode="l" horiz-adv-x="260" d="M50 720 L210 720 L210 0 L50 0 L50 720 Z " />
<glyph glyph-name="m" unicode="m" horiz-adv-x="1206" d="M886 561 Q1023 561 1089.5 490.5 Q1156 420 1156 277 L1156 0 L996 0 L996 264 Q996 356 962.5 398.5 Q929 441 851 441 Q791 441 750.5 420 Q710 399 683 359 L683 0 L523 0 L523 264 Q523 356 489.5 398.5 Q456 441 378 441 Q318 441 277.5 420 Q237 399 210 359 L210 0 L50 0 L50 545 L159 545 L205 446 Q282 561 413 561 Q596 561 654 435 Q688 488 746.5 524.5 Q805 561 886 561 Z " />
<glyph glyph-name="n" unicode="n" horiz-adv-x="763" d="M433 561 Q568 561 640.5 490.5 Q713 420 713 283 L713 0 L553 0 L553 270 Q553 356 513.5 398.5 Q474 441 398 441 Q337 441 288 417 Q239 393 210 353 L210 0 L50 0 L50 545 L159 545 L206 445 Q242 494 300 527.5 Q358 561 433 561 Z " />
<glyph glyph-name="o" unicode="o" horiz-adv-x="766" d="M383 -15 Q279 -15 199 20.5 Q119 56 74.5 121 Q30 186 30 273 Q30 358 74 423 Q118 488 198.5 524 Q279 560 383 560 Q487 560 567.5 524 Q648 488 692 423 Q736 358 736 273 Q736 186 691.5 121 Q647 56 567 20.5 Q487 -15 383 -15 Z M383 115 Q474 115 525 155 Q576 195 576 273 Q576 348 523.5 389 Q471 430 382 430 Q293 430 241.5 389 Q190 348 190 273 Q190 195 241 155 Q292 115 383 115 Z " />
<glyph glyph-name="p" unicode="p" horiz-adv-x="784" d="M435 560 Q534 560 606 523 Q678 486 716 420 Q754 354 754 269 Q754 188 715.5 123 Q677 58 604.5 21 Q532 -16 435 -16 Q357 -16 299 10 Q241 36 210 90 L210 -175 L50 -175 L50 545 L158 545 L203 450 Q235 501 298 530.5 Q361 560 435 560 Z M394 104 Q487 104 540.5 149.5 Q594 195 594 269 Q594 347 541.5 393.5 Q489 440 394 440 Q310 440 260 393 Q210 346 210 269 Q210 222 233 184.5 Q256 147 297.5 125.5 Q339 104 394 104 Z " />
<glyph glyph-name="q" unicode="q" horiz-adv-x="784" d="M734 545 L734 -175 L574 -175 L574 90 Q543 36 485 10 Q427 -16 349 -16 Q252 -16 179.5 21 Q107 58 68.5 123 Q30 188 30 269 Q30 354 68 420 Q106 486 178 523 Q250 560 349 560 Q423 560 486 530.5 Q549 501 581 450 L626 545 L734 545 Z M390 104 Q445 104 486.5 125.5 Q528 147 551 184.5 Q574 222 574 269 Q574 346 524 393 Q474 440 390 440 Q295 440 242.5 393.5 Q190 347 190 269 Q190 195 243.5 149.5 Q297 104 390 104 Z " />
<glyph glyph-name="r" unicode="r" horiz-adv-x="563" d="M399 560 Q434 560 474 549 Q514 538 543 515 L497 398 Q474 415 437 425 Q400 435 369 435 Q313 435 274 414.5 Q235 394 210 354 L210 0 L50 0 L50 545 L159 545 L205 446 Q235 498 281 529 Q327 560 399 560 Z " />
<glyph glyph-name="s" unicode="s" horiz-adv-x="756" d="M420 -15 Q313 -15 209 6.5 Q105 28 45 73 L72 201 Q214 112 419 112 Q469 112 510 123.5 Q551 135 551 162 Q551 189 519.5 198 Q488 207 419 207 Q298 207 224.5 218.5 Q151 230 107.5 268 Q64 306 64 384 Q64 437 99.5 477 Q135 517 199.5 538.5 Q264 560 349 560 Q466 560 561 535.5 Q656 511 705 469 L668 342 Q616 386 523 409.5 Q430 433 354 433 Q299 433 261.5 423 Q224 413 224 384 Q224 354 256 346 Q288 338 354 338 Q459 338 531.5 329 Q604 320 657.5 281.5 Q711 243 711 162 Q711 75 628.5 30 Q546 -15 420 -15 Z " />
<glyph glyph-name="t" unicode="t" horiz-adv-x="632" d="M392 -15 Q289 -15 235 47 Q181 109 181 222 L181 425 L30 425 L30 545 L104 545 Q136 545 158.5 567 Q181 589 181 622 L181 700 L341 700 L341 545 L556 545 L556 425 L341 425 L341 225 Q341 174 367 148 Q393 122 436 122 Q466 122 501.5 135 Q537 148 572 173 L612 50 Q575 20 515 2.5 Q455 -15 392 -15 Z " />
<glyph glyph-name="u" unicode="u" horiz-adv-x="763" d="M713 545 L713 0 L604 0 L557 100 Q521 51 463 17.5 Q405 -16 330 -16 Q195 -16 122.5 54.5 Q50 125 50 262 L50 545 L210 545 L210 275 Q210 189 249.5 146.5 Q289 104 365 104 Q426 104 475 128 Q524 152 553 192 L553 545 L713 545 Z " />
<glyph glyph-name="v" unicode="v" horiz-adv-x="834" d="M819 545 L500 0 L334 0 L15 545 L197 545 L417 165 L637 545 L819 545 Z " />
<glyph glyph-name="w" unicode="w" horiz-adv-x="1202" d="M1187 545 L924 0 L747 0 L602 301 L456 0 L279 0 L15 546 L189 545 L367 167 L545 545 L658 545 L836 167 L1013 545 L1187 545 Z " />
<glyph glyph-name="x" unicode="x" horiz-adv-x="792" d="M569 0 L397 178 L224 0 L20 0 L294 283 L41 545 L246 545 L396 388 L546 545 L752 545 L498 283 L772 0 L569 0 Z " />
<glyph glyph-name="y" unicode="y" horiz-adv-x="831" d="M816 545 L410 -127 L229 -127 L325 33 L15 545 L196 545 L414 184 L634 545 L816 545 Z " />
<glyph glyph-name="z" unicode="z" horiz-adv-x="773" d="M722 432 L311 140 L722 140 L722 0 L50 0 L50 114 L460 405 L55 405 L55 545 L723 545 L722 432 Z " />
<glyph glyph-name="braceleft" unicode="&#x7b;" horiz-adv-x="528" d="M478 -72 Q368 -72 311.5 -47.5 Q255 -23 237 17.5 Q219 58 219 118 Q219 207 176.5 261 Q134 315 36 315 L20 315 L20 393 L36 393 Q134 393 176.5 447 Q219 501 219 590 Q219 650 237 690.5 Q255 731 311.5 755.5 Q368 780 478 780 L478 720 Q395 720 351.5 705.5 Q308 691 294 667.5 Q280 644 280 612 L280 560 Q280 475 233.5 419.5 Q187 364 114 354 Q187 344 233.5 288.5 Q280 233 280 148 L280 96 Q280 46 320.5 17 Q361 -12 478 -12 L478 -72 Z " />
<glyph glyph-name="bar" unicode="&#x7c;" horiz-adv-x="300" d="M120 800 L180 800 L180 -190 L120 -190 L120 800 Z " />
<glyph glyph-name="braceright" unicode="&#x7d;" horiz-adv-x="528" d="M50 -12 Q167 -12 207.5 17 Q248 46 248 96 L248 148 Q248 233 294.5 288.5 Q341 344 414 354 Q341 364 294.5 419.5 Q248 475 248 560 L248 612 Q248 644 234 667.5 Q220 691 176.5 705.5 Q133 720 50 720 L50 780 Q160 780 216.5 755.5 Q273 731 291 690.5 Q309 650 309 590 Q309 501 351.5 447 Q394 393 492 393 L508 393 L508 315 L492 315 Q394 315 351.5 261 Q309 207 309 118 Q309 58 291 17.5 Q273 -23 216.5 -47.5 Q160 -72 50 -72 L50 -12 Z " />
<glyph glyph-name="asciitilde" unicode="&#x7e;" horiz-adv-x="752" d="M702 437 L702 413 Q701 371 678.5 336.5 Q656 302 617.5 281.5 Q579 261 530 261 Q484 262 451.5 276 Q419 290 375 319 Q332 348 299.5 362.5 Q267 377 222 377 Q171 377 141.5 351.5 Q112 326 110 285 L110 261 L50 261 L50 285 Q51 327 73.5 361.5 Q96 396 134.5 416.5 Q173 437 222 437 Q277 437 313.5 421 Q350 405 396 374 Q435 347 463 334 Q491 321 530 321 Q581 321 610.5 346.5 Q640 372 642 413 L642 437 L702 437 Z " />
<glyph glyph-name="exclamdown" unicode="&#xa1;" horiz-adv-x="327" d="M164 354 Q127 354 101 379.5 Q75 405 75 441 Q75 478 101 504 Q127 530 164 530 Q200 530 226 504 Q252 478 252 441 Q252 405 226 379.5 Q200 354 164 354 Z M111 318 Q137 302 165 302 Q193 302 218 317 L248 -190 L81 -190 L111 318 Z " />
<glyph glyph-name="cent" unicode="&#xa2;" horiz-adv-x="725" d="M690 57 Q649 26 577.5 7 Q506 -12 424 -14 L424 -91 L364 -91 L364 -14 Q262 -9 187 27 Q112 63 71 126 Q30 189 30 273 Q30 355 71 418.5 Q112 482 187.5 518.5 Q263 555 364 560 L364 659 L424 659 L424 560 Q505 557 577 538 Q649 519 690 489 L645 361 Q598 389 538.5 406.5 Q479 424 424 426 L424 121 Q478 123 539.5 139.5 Q601 156 645 181 L690 57 Z M190 273 Q190 214 237 174 Q284 134 364 124 L364 423 Q284 413 237 373 Q190 333 190 273 Z " />
<glyph glyph-name="sterling" unicode="&#xa3;" horiz-adv-x="811" d="M251 142 Q278 143 309 140.5 Q340 138 370 134 Q378 133 412 129 Q446 125 477 125 Q581 125 677 178 L753 33 Q648 -15 539 -15 Q492 -15 450.5 -8 Q409 -1 345 13 Q298 24 265 30 Q232 36 202 36 Q134 36 79 0 L54 35 Q190 143 190 274 Q190 303 183 338 L50 338 L50 398 L167 398 L159 425 Q148 471 148 506 Q148 614 233 674.5 Q318 735 470 735 Q554 735 633 709 Q712 683 761 637 L707 500 Q668 538 603 561 Q538 584 474 584 Q397 584 360 559 Q323 534 323 478 Q323 449 332 413 Q334 403 336 398 L573 398 L573 338 L346 338 Q347 330 347 314 Q347 268 325 227.5 Q303 187 251 142 Z " />
<glyph glyph-name="fraction" unicode="&#x2044;" horiz-adv-x="786" d="M100 -20 L639 775 L686 738 L149 -54 L100 -20 Z " />
<glyph glyph-name="yen" unicode="&#xa5;" horiz-adv-x="937" d="M720 469 L848 469 L848 409 L673 409 L636 362 L848 362 L848 302 L589 302 L550 253 L550 0 L390 0 L390 252 L350 302 L82 302 L82 362 L303 362 L266 409 L82 409 L82 469 L218 469 L20 720 L222 720 L470 402 L715 720 L917 720 L720 469 Z " />
<glyph glyph-name="florin" unicode="&#x192;" horiz-adv-x="738" d="M193 425 L53 425 L53 545 L229 545 Q263 664 337.5 722.5 Q412 781 506 781 Q557 781 608 763.5 Q659 746 703 714 L622 591 Q600 613 568 627 Q536 641 504 641 Q464 641 433 618 Q402 595 388 545 L528 545 L528 425 L353 425 L195 -127 L35 -127 L193 425 Z " />
<glyph glyph-name="section" unicode="&#xa7;" horiz-adv-x="922" d="M483 -199 Q221 -199 55 -102 L92 41 Q200 -14 288.5 -31.5 Q377 -49 518 -49 Q614 -49 655.5 -32.5 Q697 -16 697 11 Q697 35 669 47 Q641 59 599 62.5 Q557 66 479 68 L427 70 Q296 75 217.5 98 Q139 121 104 164.5 Q69 208 69 275 Q69 354 137 403 Q74 450 74 532 Q74 631 168 683 Q262 735 426 735 Q552 735 647.5 709.5 Q743 684 840 626 L792 488 Q703 542 601.5 566 Q500 590 385 590 Q324 590 281.5 575.5 Q239 561 239 532 Q239 497 281 482 Q323 467 421 467 L522 467 Q678 467 772.5 423.5 Q867 380 867 271 Q867 193 790 141 Q862 94 862 7 Q862 -56 817 -102.5 Q772 -149 687 -174 Q602 -199 483 -199 Z M521 203 Q617 203 659.5 222 Q702 241 702 271 Q702 312 647.5 324 Q593 336 484 336 L432 336 L380 336 Q316 336 275 321.5 Q234 307 234 275 Q234 248 257.5 233 Q281 218 330.5 212 Q380 206 467 204 L521 203 Z " />
<glyph glyph-name="currency" unicode="&#xa4;" horiz-adv-x="595" d="M467 89 L419 137 Q365 97 297 97 Q230 97 176 137 L128 89 L85 132 L133 180 Q94 235 94 300 Q94 368 134 422 L86 470 L129 513 L178 464 Q229 503 297 503 Q362 503 417 464 L466 513 L509 470 L460 421 Q500 367 500 300 Q500 232 461 181 L510 132 L467 89 Z M154 300 Q154 262 173.5 229 Q193 196 226 176.5 Q259 157 297 157 Q335 157 368 176.5 Q401 196 420.5 229 Q440 262 440 300 Q440 338 420.5 371 Q401 404 368 423.5 Q335 443 297 443 Q259 443 226 423.5 Q193 404 173.5 371 Q154 338 154 300 Z " />
<glyph glyph-name="quotesingle" unicode="&#x27;" horiz-adv-x="225" d="M50 720 L175 720 L130 480 L94 480 L50 720 Z " />
<glyph glyph-name="quotedblleft" unicode="&#x201c;" horiz-adv-x="512" d="M190 720 L227 720 L188 467 L55 467 L190 720 Z M420 720 L457 720 L418 467 L285 467 L420 720 Z " />
<glyph glyph-name="guillemotleft" unicode="&#xab;" horiz-adv-x="625" d="M50 280 L288 500 L325 500 L207 281 L325 62 L288 62 L50 280 Z M300 280 L538 500 L575 500 L457 281 L575 62 L538 62 L300 280 Z " />
<glyph glyph-name="guilsinglleft" unicode="&#x2039;" horiz-adv-x="355" d="M30 280 L268 500 L305 500 L187 281 L305 62 L268 62 L30 280 Z " />
<glyph glyph-name="guilsinglright" unicode="&#x203a;" horiz-adv-x="355" d="M148 281 L30 500 L67 500 L305 280 L67 62 L30 62 L148 281 Z " />
<glyph glyph-name="endash" unicode="&#x2013;" horiz-adv-x="883" d="M100 331 L783 331 L783 271 L100 271 L100 331 Z " />
<glyph glyph-name="dagger" unicode="&#x2020;" horiz-adv-x="598" d="M269 440 L50 440 L50 500 L269 500 L269 720 L329 720 L329 500 L548 500 L548 440 L329 440 L329 -126 L269 -126 L269 440 Z " />
<glyph glyph-name="daggerdbl" unicode="&#x2021;" horiz-adv-x="598" d="M329 440 L329 280 L548 280 L548 220 L329 220 L329 -126 L269 -126 L269 220 L51 220 L51 280 L269 280 L269 440 L50 440 L50 500 L269 500 L269 720 L329 720 L329 500 L548 500 L548 440 L329 440 Z " />
<glyph glyph-name="middot" unicode="&#xb7;" horiz-adv-x="337" d="M169 188 Q132 188 106 214 Q80 240 80 277 Q80 313 106 338.5 Q132 364 169 364 Q205 364 231 338.5 Q257 313 257 277 Q257 240 231 214 Q205 188 169 188 Z " />
<glyph glyph-name="paragraph" unicode="&#xb6;" horiz-adv-x="658" d="M368 719 Q378 720 428 720 L428 -127 L368 -127 L368 182 Q287 183 214.5 210 Q142 237 96 297 Q50 357 50 451 Q50 545 96 605 Q142 665 214.5 692 Q287 719 368 720 L368 719 Z M608 720 L608 -127 L548 -127 L548 720 L608 720 Z " />
<glyph glyph-name="bullet" unicode="&#x2022;" horiz-adv-x="440" d="M220 161 Q182 161 150 179.5 Q118 198 99 230 Q80 262 80 300 Q80 338 99 370.5 Q118 403 150 421.5 Q182 440 220 440 Q258 440 290 421.5 Q322 403 341 370.5 Q360 338 360 300 Q360 262 341 230 Q322 198 290 179.5 Q258 161 220 161 Z " />
<glyph glyph-name="quotesinglbase" unicode="&#x201a;" horiz-adv-x="282" d="M94 126 L227 126 L92 -127 L55 -127 L94 126 Z " />
<glyph glyph-name="quotedblbase" unicode="&#x201e;" horiz-adv-x="512" d="M94 126 L227 126 L92 -127 L55 -127 L94 126 Z M324 126 L457 126 L322 -127 L285 -127 L324 126 Z " />
<glyph glyph-name="quotedblright" unicode="&#x201d;" horiz-adv-x="512" d="M94 720 L227 720 L92 467 L55 467 L94 720 Z M324 720 L457 720 L322 467 L285 467 L324 720 Z " />
<glyph glyph-name="guillemotright" unicode="&#xbb;" horiz-adv-x="625" d="M168 281 L50 500 L87 500 L325 280 L87 62 L50 62 L168 281 Z M418 281 L300 500 L337 500 L575 280 L337 62 L300 62 L418 281 Z " />
<glyph glyph-name="ellipsis" unicode="&#x2026;" horiz-adv-x="837" d="M139 0 Q102 0 76 26 Q50 52 50 89 Q50 125 76 150.5 Q102 176 139 176 Q175 176 201 150.5 Q227 125 227 89 Q227 52 201 26 Q175 0 139 0 Z M419 0 Q382 0 356 26 Q330 52 330 89 Q330 125 356 150.5 Q382 176 419 176 Q455 176 481 150.5 Q507 125 507 89 Q507 52 481 26 Q455 0 419 0 Z M699 0 Q662 0 636 26 Q610 52 610 89 Q610 125 636 150.5 Q662 176 699 176 Q735 176 761 150.5 Q787 125 787 89 Q787 52 761 26 Q735 0 699 0 Z " />
<glyph glyph-name="perthousand" unicode="&#x2030;" horiz-adv-x="1380" d="M493 544 Q493 457 432.5 404.5 Q372 352 272 352 Q206 352 155.5 376 Q105 400 77.5 443.5 Q50 487 50 544 Q50 600 77.5 643 Q105 686 155 710.5 Q205 735 270 735 Q336 735 386.5 711.5 Q437 688 465 644.5 Q493 601 493 544 Z M870 677 L202 0 L159 43 L827 720 L870 677 Z M136 544 Q136 492 173 460.5 Q210 429 272 429 Q333 429 369.5 461 Q406 493 406 546 Q406 596 368.5 626.5 Q331 657 271 657 Q211 657 173.5 626 Q136 595 136 544 Z M1105 368 Q1172 368 1223 344 Q1274 320 1302 277 Q1330 234 1330 177 Q1330 90 1269.5 37.5 Q1209 -15 1109 -15 Q1051 -15 1005.5 3 Q960 21 930 55 Q901 22 855.5 3.5 Q810 -15 752 -15 Q686 -15 635.5 9 Q585 33 557.5 76.5 Q530 120 530 177 Q530 233 557.5 276 Q585 319 635 343.5 Q685 368 750 368 Q808 368 854.5 349.5 Q901 331 930 297 Q959 331 1004 349.5 Q1049 368 1105 368 Z M886 179 Q886 229 848.5 259.5 Q811 290 751 290 Q691 290 653.5 259 Q616 228 616 177 Q616 125 653 93.5 Q690 62 752 62 Q813 62 849.5 94 Q886 126 886 179 Z M1243 179 Q1243 229 1205.5 259.5 Q1168 290 1108 290 Q1048 290 1010.5 259 Q973 228 973 177 Q973 125 1010 93.5 Q1047 62 1109 62 Q1170 62 1206.5 94 Q1243 126 1243 179 Z " />
<glyph glyph-name="questiondown" unicode="&#xbf;" horiz-adv-x="781" d="M396 410 Q360 410 334 435.5 Q308 461 308 497 Q308 534 334 560 Q360 586 396 586 Q433 586 459 560 Q485 534 485 497 Q485 461 459 435.5 Q433 410 396 410 Z M325 -148 Q218 -148 154.5 -117 Q91 -86 66 -17 Q55 13 55 42 Q55 80 75.5 110.5 Q96 141 125.5 163 Q155 185 203 214 Q249 242 275.5 261.5 Q302 281 320.5 307.5 Q339 334 339 366 L339 379 Q368 364 394 364 Q420 364 448 379 L448 365 Q448 307 425 265.5 Q402 224 371 198 Q340 172 293 143 Q252 117 234 100.5 Q216 84 216 63 Q216 54 221 42 Q230 20 254 10 Q278 0 325 0 Q410 0 514 34.5 Q618 69 687 131 L726 -21 Q650 -79 538 -113.5 Q426 -148 325 -148 Z " />
<glyph glyph-name="grave" unicode="&#x60;" horiz-adv-x="423" d="M100 720 L225 720 L303 545 L266 545 L100 720 Z " />
<glyph glyph-name="acute" unicode="&#xb4;" horiz-adv-x="423" d="M198 720 L323 720 L157 545 L120 545 L198 720 Z " />
<glyph glyph-name="circumflex" unicode="&#x2c6;" horiz-adv-x="406" d="M256 545 L203 679 L150 545 L25 545 L187 720 L219 720 L381 545 L256 545 Z " />
<glyph glyph-name="tilde" unicode="&#x2dc;" horiz-adv-x="500" d="M354 607 Q321 607 298 617 Q275 627 245 647 Q217 666 196 675.5 Q175 685 146 685 Q114 685 95 669.5 Q76 654 76 628 L76 612 L25 612 L25 628 Q25 673 60 704 Q95 735 146 735 Q185 735 211 724 Q237 713 267 692 Q293 674 311 665.5 Q329 657 354 657 Q386 657 405 672.5 Q424 688 424 714 L424 730 L475 730 L475 714 Q475 669 440 638 Q405 607 354 607 Z " />
<glyph glyph-name="overscore" unicode="&#xaf;" horiz-adv-x="531" d="M25 720 L506 720 L506 660 L25 660 L25 720 Z " />
<glyph glyph-name="breve" unicode="&#x2d8;" horiz-adv-x="432" d="M216 570 Q164 570 120 597.5 Q76 625 50 666 L91 697 Q140 621 215 621 L217 621 Q292 621 341 697 L382 666 Q356 625 312 597.5 Q268 570 216 570 Z " />
<glyph glyph-name="dotaccent" unicode="&#x2d9;" horiz-adv-x="263" d="M130 600 Q97 600 73.5 624 Q50 648 50 681 Q50 714 74 738 Q98 762 132 762 Q165 762 189 738 Q213 714 213 681 Q213 647 188.5 623.5 Q164 600 130 600 Z " />
<glyph glyph-name="dieresis" unicode="&#xa8;" horiz-adv-x="533" d="M130 590 Q100 590 78.5 612 Q57 634 57 664 Q57 694 79 716.5 Q101 739 132 739 Q162 739 184 716.5 Q206 694 206 664 Q206 633 184 611.5 Q162 590 130 590 Z M400 590 Q370 590 348.5 612 Q327 634 327 664 Q327 694 349 716.5 Q371 739 402 739 Q432 739 454 716.5 Q476 694 476 664 Q476 633 453.5 611.5 Q431 590 400 590 Z " />
<glyph glyph-name="ring" unicode="&#x2da;" horiz-adv-x="368" d="M184 537 Q143 537 114 566 Q85 595 85 636 Q85 677 114 706 Q143 735 184 735 Q225 735 254 706 Q283 677 283 636 Q283 595 254 566 Q225 537 184 537 Z M184 577 Q208 577 225.5 594.5 Q243 612 243 636 Q243 660 225.5 677.5 Q208 695 184 695 Q160 695 142.5 677.5 Q125 660 125 636 Q125 612 142.5 594.5 Q160 577 184 577 Z " />
<glyph glyph-name="cedilla" unicode="&#xb8;" horiz-adv-x="303" d="M216 -12 L253 -12 L175 -187 L50 -187 L216 -12 Z " />
<glyph glyph-name="hungarumlaut" unicode="&#x2dd;" horiz-adv-x="677" d="M336 824 L417 824 L181 570 L100 570 L336 824 Z M496 824 L577 824 L341 570 L260 570 L496 824 Z " />
<glyph glyph-name="ogonek" unicode="&#x2db;" horiz-adv-x="441" d="M233 -221 Q169 -221 138.5 -190.5 Q108 -160 101 -119 Q100 -114 100 -105 Q100 -79 113 -48 L134 0 L200 0 L166 -81 Q161 -93 161 -105 Q161 -130 178.5 -148 Q196 -166 232 -166 Q279 -166 290 -133 Q301 -100 301 -60 L361 -79 Q361 -115 354 -144.5 Q347 -174 319 -197.5 Q291 -221 233 -221 Z " />
<glyph glyph-name="caron" unicode="&#x2c7;" horiz-adv-x="406" d="M381 720 L219 545 L187 545 L25 720 L150 720 L203 586 L256 720 L381 720 Z " />
<glyph glyph-name="emdash" unicode="&#x2014;" horiz-adv-x="1020" d="M100 331 L920 331 L920 271 L100 271 L100 331 Z " />
<glyph glyph-name="AE" unicode="&#xc6;" horiz-adv-x="1350" d="M728 293 L728 140 L1298 140 L1299 0 L568 0 L568 187 L324 187 L205 0 L15 0 L477 720 L1299 720 L1299 580 L728 580 L728 428 L1300 428 L1300 293 L728 293 Z M568 327 L568 568 L413 327 L568 327 Z " />
<glyph glyph-name="ordfeminine" unicode="&#xaa;" horiz-adv-x="523" d="M242 735 Q340 735 406.5 697 Q473 659 473 587 L473 391 L405 391 L385 435 Q359 408 321 395.5 Q283 383 228 383 Q142 383 96 413 Q50 443 50 499 Q50 553 104.5 584 Q159 615 238 615 Q326 615 373 575 Q371 617 333 636 Q295 655 238 655 Q153 655 85 622 L55 696 Q135 735 242 735 Z M148 499 Q148 479 175 470 Q202 461 241 461 Q326 461 373 499 Q324 538 241 538 Q202 538 175 529 Q148 520 148 499 Z " />
<glyph glyph-name="Lslash" unicode="&#x141;" horiz-adv-x="962" d="M927 140 L927 0 L182 0 L182 282 L85 210 L50 258 L182 356 L182 720 L342 720 L342 476 L447 554 L482 505 L342 401 L342 140 L927 140 Z " />
<glyph glyph-name="Oslash" unicode="&#xd8;" horiz-adv-x="969" d="M711 690 Q810 645 864.5 560.5 Q919 476 919 361 Q919 245 865 160 Q811 75 713 30 Q615 -15 485 -15 Q389 -15 306 11 L279 -35 L227 -4 L249 33 Q154 79 102 163 Q50 247 50 361 Q50 475 104.5 559.5 Q159 644 257.5 689.5 Q356 735 484 735 Q578 735 654 711 L678 752 L730 721 L711 690 Z M215 361 Q215 295 245 246 Q275 197 330 169 L573 575 Q533 585 484 585 Q405 585 344 558 Q283 531 249 480.5 Q215 430 215 361 Z M485 135 Q564 135 625 162 Q686 189 720 240 Q754 291 754 361 Q754 428 721.5 477.5 Q689 527 631 555 L387 147 Q432 135 485 135 Z " />
<glyph glyph-name="OE" unicode="&#x152;" horiz-adv-x="1496" d="M914 293 L914 138 L1444 138 L1445 -2 L754 -2 L754 52 Q646 -15 485 -15 Q355 -15 256.5 30 Q158 75 104 160 Q50 245 50 361 Q50 475 104.5 559.5 Q159 644 257.5 689.5 Q356 735 484 735 Q643 735 754 667 L754 722 L1445 722 L1445 582 L914 582 L914 428 L1446 428 L1446 293 L914 293 Z M485 135 Q564 135 625 162 Q686 189 720 240 Q754 291 754 361 Q754 430 719.5 480.5 Q685 531 624 558 Q563 585 484 585 Q405 585 344 558 Q283 531 249 480.5 Q215 430 215 361 Q215 291 249 240 Q283 189 344 162 Q405 135 485 135 Z " />
<glyph glyph-name="ae" unicode="&#xe6;" horiz-adv-x="1342" d="M938 -15 Q839 -15 763 13 Q687 41 641 94 Q558 -14 341 -14 Q201 -14 125.5 34.5 Q50 83 50 175 Q50 235 92 277.5 Q134 320 204.5 342 Q275 364 359 364 Q496 364 577 300 Q573 369 514.5 399.5 Q456 430 362 430 Q226 430 108 372 L58 494 Q126 527 200.5 543.5 Q275 560 363 560 Q450 560 527 537 Q604 514 656 470 Q749 560 939 560 Q1293 560 1292 217 L739 217 L739 214 Q754 165 808 140 Q862 115 939 115 Q1028 115 1090.5 129 Q1153 143 1198 173 L1258 69 Q1199 25 1119.5 5 Q1040 -15 938 -15 Z M1130 337 Q1119 384 1072.5 407 Q1026 430 939 430 Q761 430 740 337 L1130 337 Z M362 112 Q500 112 577 175 Q539 206 484.5 222.5 Q430 239 362 239 Q299 239 254.5 224 Q210 209 210 175 Q210 141 254 126.5 Q298 112 362 112 Z " />
<glyph glyph-name="dotlessi" unicode="&#x131;" horiz-adv-x="260" d="M50 545 Q88 526 130 526 Q173 526 210 545 L210 0 L50 0 L50 545 Z " />
<glyph glyph-name="lslash" unicode="&#x142;" horiz-adv-x="447" d="M304 403 L304 0 L144 0 L144 307 L81 269 L50 323 L144 379 L144 720 L304 720 L304 476 L368 514 L397 459 L304 403 Z " />
<glyph glyph-name="oslash" unicode="&#xf8;" horiz-adv-x="766" d="M566 525 Q646 489 691 423.5 Q736 358 736 273 Q736 186 691.5 121 Q647 56 567 20.5 Q487 -15 383 -15 Q311 -15 254 1 L233 -35 L177 -2 L192 23 Q115 59 72.5 123.5 Q30 188 30 273 Q30 358 74 423 Q118 488 198.5 524 Q279 560 383 560 Q445 560 503 546 L521 577 L577 544 L566 525 Z M190 273 Q190 182 262 141 L431 426 Q411 430 382 430 Q293 430 241.5 389 Q190 348 190 273 Z M383 115 Q474 115 525 155 Q576 195 576 273 Q576 319 555 353 Q534 387 495 407 L325 120 Q355 115 383 115 Z " />
<glyph glyph-name="oe" unicode="&#x153;" horiz-adv-x="1340" d="M937 560 Q1291 560 1290 217 L736 217 Q750 166 804 140.5 Q858 115 937 115 Q1026 115 1088.5 129 Q1151 143 1196 173 L1256 69 Q1197 25 1117.5 5 Q1038 -15 936 -15 Q845 -15 773.5 9 Q702 33 655 78 Q608 33 538 9 Q468 -15 383 -15 Q279 -15 199 20.5 Q119 56 74.5 121 Q30 186 30 273 Q30 358 74 423 Q118 488 198.5 524 Q279 560 383 560 Q467 560 536 536 Q605 512 653 468 Q745 560 937 560 Z M383 115 Q474 115 525 155 Q576 195 576 273 Q576 348 523.5 389 Q471 430 382 430 Q293 430 241.5 389 Q190 348 190 273 Q190 195 241 155 Q292 115 383 115 Z M937 430 Q759 430 738 337 L1128 337 Q1117 384 1070.5 407 Q1024 430 937 430 Z " />
<glyph glyph-name="germandbls" unicode="&#xdf;" horiz-adv-x="972" d="M621 337 Q705 337 768.5 327 Q832 317 879.5 278.5 Q927 240 927 162 Q927 105 893 65 Q859 25 801.5 5 Q744 -15 674 -15 Q468 -15 352 73 L379 201 Q456 153 517 134 Q578 115 675 115 Q767 115 767 159 Q767 184 743 195.5 Q719 207 670 207 Q576 207 511 220.5 Q446 234 407.5 272.5 Q369 311 369 382 Q369 544 614 559 Q593 580 559.5 592.5 Q526 605 489 605 Q437 605 390.5 584.5 Q344 564 314 517 Q284 470 284 395 L284 0 L124 0 L124 402 Q124 417 125 425 L50 425 L50 545 L152 545 Q193 638 283 686.5 Q373 735 489 735 Q566 735 640 706 Q714 677 767.5 620 Q821 563 835 484 L788 388 Q722 424 639 424 Q589 424 559 415.5 Q529 407 529 382 Q529 360 549 348.5 Q569 337 621 337 Z " />
<glyph glyph-name="logicalnot" unicode="&#xac;" horiz-adv-x="695" d="M585 430 L50 430 L50 490 L645 490 L645 205 L585 205 L585 430 Z " />
<glyph glyph-name="uni03BC" unicode="&#x3bc;" horiz-adv-x="763" d="M713 545 L713 0 L596 0 L558 102 Q522 52 464 18 Q406 -16 330 -16 Q252 -16 210 17 L210 -127 L50 -127 L50 545 L210 545 L210 275 Q210 189 249.5 146.5 Q289 104 365 104 Q426 104 475 128 Q524 152 553 192 L553 545 L713 545 Z " />
<glyph glyph-name="trademark" unicode="&#x2122;" horiz-adv-x="972" d="M453 652 L303 652 L303 370 L225 370 L225 652 L50 652 L50 720 L566 720 L688 451 L809 720 L922 720 L922 369 L845 369 L845 620 L732 370 L643 370 L530 620 L530 369 L453 369 L453 652 Z " />
<glyph glyph-name="Eth" unicode="&#xd0;" horiz-adv-x="1012" d="M524 720 Q742 720 859 627.5 Q976 535 977 359 Q976 183 859 91.5 Q742 0 523 0 L125 0 L125 337 L50 337 L50 397 L125 397 L125 720 L524 720 Z M504 140 Q660 140 736 194.5 Q812 249 812 359 Q812 469 736 524.5 Q660 580 504 580 L285 580 L285 396 L496 396 L496 336 L285 336 L285 140 L504 140 Z " />
<glyph glyph-name="onehalf" unicode="&#xbd;" horiz-adv-x="1308" d="M951 734 L427 -14 L378 20 L904 771 L951 734 Z M495 268 L50 268 L50 356 L222 356 L222 584 L51 463 L51 571 L269 720 L322 720 L322 356 L495 356 L495 268 Z M1031 168 Q969 162 936 153.5 Q903 145 888 129.5 Q873 114 871 87 L1242 87 L1242 0 L765 0 L764 73 Q763 233 1007 259 Q1090 268 1122 278 Q1154 288 1154 315 Q1154 337 1129 351 Q1104 365 1049 365 Q982 365 909 342 Q836 319 796 280 L758 363 Q802 406 883.5 432.5 Q965 459 1049 459 Q1145 459 1198.5 425 Q1252 391 1257 332 Q1263 254 1209 217 Q1155 180 1031 168 Z " />
<glyph glyph-name="plusminus" unicode="&#xb1;" horiz-adv-x="650" d="M600 440 L600 380 L355 380 L355 149 L294 149 L294 380 L50 380 L50 440 L294 440 L294 639 L355 639 L355 440 L600 440 Z M50 60 L600 60 L600 0 L50 0 L50 60 Z " />
<glyph glyph-name="Thorn" unicode="&#xde;" horiz-adv-x="871" d="M543 598 Q683 598 759.5 537.5 Q836 477 836 371 Q836 275 775 209 Q714 143 543 143 L210 143 L210 0 L50 0 L50 720 L210 720 L210 598 L543 598 Z M472 283 Q549 283 587 287 Q625 291 648 310 Q671 329 671 371 Q671 412 648 431 Q625 450 587 454 Q549 458 472 458 L210 458 L210 283 L472 283 Z " />
<glyph glyph-name="onequarter" unicode="&#xbc;" horiz-adv-x="1259" d="M951 734 L427 -14 L378 20 L904 771 L951 734 Z M495 268 L50 268 L50 356 L222 356 L222 584 L51 463 L51 571 L269 720 L322 720 L322 356 L495 356 L495 268 Z M1209 209 L1209 121 L1071 121 L1071 -1 L970 -1 L970 121 L653 121 L653 207 Q729 233 805.5 304.5 Q882 376 937 454 L1071 454 L1071 209 L1209 209 Z M970 209 L970 357 Q941 319 902 278 Q863 237 829 209 L970 209 Z " />
<glyph glyph-name="divide" unicode="&#xf7;" horiz-adv-x="750" d="M375 375 Q335 375 306 404 Q277 433 277 473 Q277 513 306 541.5 Q335 570 375 570 Q415 570 443.5 541.5 Q472 513 472 473 Q472 433 443.5 404 Q415 375 375 375 Z M50 319 L700 319 L700 259 L50 259 L50 319 Z M375 0 Q335 0 306 29 Q277 58 277 98 Q277 138 306 166.5 Q335 195 375 195 Q415 195 443.5 166.5 Q472 138 472 98 Q472 58 443.5 29 Q415 0 375 0 Z " />
<glyph glyph-name="brokenbar" unicode="&#xa6;" horiz-adv-x="300" d="M120 800 L180 800 L180 426 L120 426 L120 800 Z M120 185 L180 185 L180 -190 L120 -190 L120 185 Z " />
<glyph glyph-name="degree" unicode="&#xb0;" horiz-adv-x="590" d="M295 385 Q247 385 207 408.5 Q167 432 143.5 472 Q120 512 120 560 Q120 608 143.5 648 Q167 688 207 711.5 Q247 735 295 735 Q343 735 383 711.5 Q423 688 446.5 648 Q470 608 470 560 Q470 512 446.5 472 Q423 432 383 408.5 Q343 385 295 385 Z M295 445 Q342 445 376 479 Q410 513 410 560 Q410 607 376 641 Q342 675 295 675 Q248 675 214 641 Q180 607 180 560 Q180 513 214 479 Q248 445 295 445 Z " />
<glyph glyph-name="thorn" unicode="&#xfe;" horiz-adv-x="784" d="M435 561 Q532 561 604.5 524 Q677 487 715.5 422 Q754 357 754 276 Q754 191 716 125 Q678 59 606 22 Q534 -15 435 -15 Q365 -15 304.5 11 Q244 37 210 84 L210 -127 L50 -127 L50 720 L210 720 L210 455 Q241 509 299 535 Q357 561 435 561 Z M394 105 Q489 105 541.5 151.5 Q594 198 594 276 Q594 350 540.5 395.5 Q487 441 394 441 Q339 441 297.5 419.5 Q256 398 233 360.5 Q210 323 210 276 Q210 199 260 152 Q310 105 394 105 Z " />
<glyph glyph-name="threequarters" unicode="&#xbe;" horiz-adv-x="1274" d="M964 734 L440 -14 L391 20 L917 771 L964 734 Z M544 411 Q544 339 476.5 299.5 Q409 260 286 260 Q137 260 50 329 L84 411 Q154 350 288 350 Q359 350 398.5 365.5 Q438 381 438 411 Q438 437 408.5 446.5 Q379 456 307 456 L234 456 L234 542 L342 542 Q390 542 410.5 551.5 Q431 561 431 583 Q431 613 392 629 Q353 645 285 645 Q156 645 82 585 L53 668 Q138 735 284 735 Q403 735 470 695 Q537 655 537 583 Q537 552 525.5 532.5 Q514 513 486 499 Q515 485 529.5 462 Q544 439 544 411 Z M1224 209 L1224 121 L1086 121 L1086 -1 L985 -1 L985 121 L668 121 L668 207 Q744 233 820.5 304.5 Q897 376 952 454 L1086 454 L1086 209 L1224 209 Z M985 209 L985 357 Q956 319 917 278 Q878 237 844 209 L985 209 Z " />
<glyph glyph-name="registered" unicode="&#xae;" horiz-adv-x="905" d="M453 720 Q562 720 654.5 671.5 Q747 623 801 540 Q855 457 855 359 Q855 261 801 178 Q747 95 654.5 46.5 Q562 -2 453 -2 Q344 -2 251.5 46.5 Q159 95 104.5 178 Q50 261 50 359 Q50 457 104.5 540 Q159 623 251.5 671.5 Q344 720 453 720 Z M453 36 Q551 36 634 79.5 Q717 123 765.5 197 Q814 271 814 359 Q814 447 765.5 521 Q717 595 634 638.5 Q551 682 453 682 Q355 682 271.5 638.5 Q188 595 139.5 521 Q91 447 91 359 Q91 271 139.5 197 Q188 123 271.5 79.5 Q355 36 453 36 Z M538 314 Q569 301 603 270 Q637 239 661 206 L703 146 L585 146 Q579 154 569 170 Q562 179 549 198 Q536 217 525 229 Q484 276 434 295 Q384 314 323 312 L323 146 L226 146 L226 580 L523 580 Q605 580 652.5 544.5 Q700 509 700 446 Q700 325 538 314 Z M480 395 Q527 395 549.5 397.5 Q572 400 586 410.5 Q600 421 600 446 Q600 470 586 480.5 Q572 491 549 493.5 Q526 496 480 496 L323 496 L323 394 L480 395 Z " />
<glyph glyph-name="minus" unicode="&#x2212;" horiz-adv-x="750" d="M50 331 L700 331 L700 271 L50 271 L50 331 Z " />
<glyph glyph-name="eth" unicode="&#xf0;" horiz-adv-x="832" d="M371 717 Q510 697 600 648.5 Q690 600 736 510.5 Q782 421 782 279 Q782 195 732.5 128 Q683 61 595 23 Q507 -15 397 -15 Q225 -15 137.5 44.5 Q50 104 50 218 Q50 286 91.5 338.5 Q133 391 211.5 420.5 Q290 450 397 450 Q473 450 528.5 434.5 Q584 419 636 377 Q628 454 564.5 510.5 Q501 567 345 592 L332 527 L277 538 L289 599 Q207 606 128 606 L157 735 Q253 732 315 724 L327 782 L382 771 L371 717 Z M400 108 Q484 108 548.5 137 Q613 166 640 217 Q612 268 543 298 Q474 328 400 328 Q300 328 245.5 298 Q191 268 191 218 Q191 168 245.5 138 Q300 108 400 108 Z " />
<glyph glyph-name="multiply" unicode="&#xd7;" horiz-adv-x="534" d="M267 353 L224 310 L80 454 L123 497 L267 353 Z M310 310 L267 353 L411 497 L454 454 L310 310 Z M224 310 L267 267 L123 123 L80 166 L224 310 Z M310 310 L454 166 L411 123 L267 267 L310 310 Z " />
<glyph glyph-name="copyright" unicode="&#xa9;" horiz-adv-x="905" d="M453 -2 Q344 -2 251.5 46.5 Q159 95 104.5 178 Q50 261 50 359 Q50 457 104.5 540 Q159 623 251.5 671.5 Q344 720 453 720 Q562 720 654.5 671.5 Q747 623 801 540 Q855 457 855 359 Q855 261 801 178 Q747 95 654.5 46.5 Q562 -2 453 -2 Z M453 36 Q551 36 634 79.5 Q717 123 765.5 197 Q814 271 814 359 Q814 447 765.5 521 Q717 595 634 638.5 Q551 682 453 682 Q355 682 271.5 638.5 Q188 595 139.5 521 Q91 447 91 359 Q91 271 139.5 197 Q188 123 271.5 79.5 Q355 36 453 36 Z M456 136 Q377 136 316 163 Q255 190 220.5 240 Q186 290 186 359 Q186 426 220 477 Q254 528 314.5 555.5 Q375 583 451 583 Q512 583 578 565 Q644 547 683 512 L649 431 Q615 460 566.5 477 Q518 494 472 494 Q384 494 334.5 458 Q285 422 285 359 Q285 297 335 261 Q385 225 467 225 Q512 225 560 238 Q608 251 650 279 L683 202 Q638 166 576.5 151 Q515 136 456 136 Z " />
<glyph glyph-name="Aacute" unicode="&#xc1;" horiz-adv-x="1067" d="M556 745 L519 745 L597 920 L722 920 L556 745 Z M758 183 L309 183 L201 0 L15 0 L443 720 L623 720 L1052 0 L866 0 L758 183 Z M390 323 L676 323 L533 562 L390 323 Z " />
<glyph glyph-name="Acircumflex" unicode="&#xc2;" horiz-adv-x="1067" d="M478 745 L353 745 L515 920 L547 920 L709 745 L584 745 L531 879 L478 745 Z M758 183 L309 183 L201 0 L15 0 L443 720 L623 720 L1052 0 L866 0 L758 183 Z M390 323 L676 323 L533 562 L390 323 Z " />
<glyph glyph-name="Adieresis" unicode="&#xc4;" horiz-adv-x="1067" d="M758 183 L309 183 L201 0 L15 0 L443 720 L623 720 L1052 0 L866 0 L758 183 Z M246 571 Q216 571 195 593.5 Q174 616 174 646 Q174 676 195.5 698 Q217 720 248 720 Q279 720 300.5 698 Q322 676 322 646 Q322 615 300 593 Q278 571 246 571 Z M818 571 Q788 571 766.5 593.5 Q745 616 745 646 Q745 676 767 698 Q789 720 820 720 Q850 720 871.5 698 Q893 676 893 646 Q893 615 871 593 Q849 571 818 571 Z M390 323 L676 323 L533 562 L390 323 Z " />
<glyph glyph-name="Agrave" unicode="&#xc0;" horiz-adv-x="1067" d="M518 745 L352 920 L477 920 L555 745 L518 745 Z M758 183 L309 183 L201 0 L15 0 L443 720 L623 720 L1052 0 L866 0 L758 183 Z M390 323 L676 323 L533 562 L390 323 Z " />
<glyph glyph-name="Aring" unicode="&#xc5;" horiz-adv-x="1067" d="M535 745 Q494 745 465 774 Q436 803 436 844 Q436 885 465 914 Q494 943 535 943 Q576 943 605 914 Q634 885 634 844 Q634 803 605 774 Q576 745 535 745 Z M535 903 Q511 903 493.5 885.5 Q476 868 476 844 Q476 820 493.5 802.5 Q511 785 535 785 Q559 785 576.5 802.5 Q594 820 594 844 Q594 868 576.5 885.5 Q559 903 535 903 Z M758 183 L309 183 L201 0 L15 0 L443 720 L623 720 L1052 0 L866 0 L758 183 Z M390 323 L676 323 L533 562 L390 323 Z " />
<glyph glyph-name="Atilde" unicode="&#xc3;" horiz-adv-x="1067" d="M394 745 L336 745 L336 780 Q336 817 372.5 843 Q409 869 452 869 Q484 869 505 860 Q526 851 552 833 Q572 818 587.5 811 Q603 804 624 804 Q650 804 666 817 Q682 830 682 852 L682 869 L740 869 L740 834 Q740 797 703.5 771 Q667 745 624 745 Q598 745 579 753 Q560 761 534 778 Q511 794 493.5 802 Q476 810 452 810 Q426 810 410 797 Q394 784 394 762 L394 745 Z M758 183 L309 183 L201 0 L15 0 L443 720 L623 720 L1052 0 L866 0 L758 183 Z M390 323 L676 323 L533 562 L390 323 Z " />
<glyph glyph-name="Ccedilla" unicode="&#xc7;" horiz-adv-x="914" d="M503 -15 Q370 -15 267.5 30 Q165 75 107.5 159.5 Q50 244 50 360 Q50 474 108.5 559 Q167 644 269.5 689.5 Q372 735 503 735 Q604 735 711 705 Q818 675 884 616 L827 481 Q770 529 688.5 557.5 Q607 586 531 586 Q382 586 298.5 526.5 Q215 467 215 360 Q215 291 253 240 Q291 189 360.5 162 Q430 135 522 135 Q598 135 678.5 157 Q759 179 829 226 L884 96 Q809 35 704.5 10 Q600 -15 503 -15 Z M492 -39 L529 -39 L451 -214 L326 -214 L492 -39 Z " />
<glyph glyph-name="Eacute" unicode="&#xc9;" horiz-adv-x="832" d="M471 920 L596 920 L430 745 L393 745 L471 920 Z M50 720 L782 720 L782 580 L210 580 L210 428 L782 428 L782 293 L210 293 L210 140 L782 140 L782 0 L50 0 L50 720 Z " />
<glyph glyph-name="Ecircumflex" unicode="&#xca;" horiz-adv-x="832" d="M378 745 L253 745 L415 920 L447 920 L609 745 L484 745 L431 879 L378 745 Z M210 580 L210 428 L782 428 L782 293 L210 293 L210 140 L782 140 L782 0 L50 0 L50 720 L782 720 L782 580 L210 580 Z " />
<glyph glyph-name="Edieresis" unicode="&#xcb;" horiz-adv-x="832" d="M290 745 Q260 745 238.5 767.5 Q217 790 217 820 Q217 850 239 872 Q261 894 292 894 Q323 894 344.5 872 Q366 850 366 820 Q366 789 344 767 Q322 745 290 745 Z M560 745 Q530 745 508.5 767.5 Q487 790 487 820 Q487 850 509 872 Q531 894 562 894 Q592 894 614 872 Q636 850 636 820 Q636 789 613.5 767 Q591 745 560 745 Z M50 720 L782 720 L782 580 L210 580 L210 428 L782 428 L782 293 L210 293 L210 140 L782 140 L782 0 L50 0 L50 720 Z " />
<glyph glyph-name="Egrave" unicode="&#xc8;" horiz-adv-x="832" d="M279 920 L404 920 L482 745 L445 745 L279 920 Z M50 720 L782 720 L782 580 L210 580 L210 428 L782 428 L782 293 L210 293 L210 140 L782 140 L782 0 L50 0 L50 720 Z " />
<glyph glyph-name="Iacute" unicode="&#xcd;" horiz-adv-x="820" d="M430 745 L393 745 L471 920 L596 920 L430 745 Z M490 580 L490 140 L770 140 L770 0 L50 0 L50 140 L330 140 L330 580 L50 580 L50 720 L770 720 L770 580 L490 580 Z " />
<glyph glyph-name="Icircumflex" unicode="&#xce;" horiz-adv-x="820" d="M356 745 L231 745 L393 920 L425 920 L587 745 L462 745 L409 879 L356 745 Z M490 580 L490 140 L770 140 L770 0 L50 0 L50 140 L330 140 L330 580 L50 580 L50 720 L770 720 L770 580 L490 580 Z " />
<glyph glyph-name="Idieresis" unicode="&#xcf;" horiz-adv-x="820" d="M277 745 Q247 745 225.5 767.5 Q204 790 204 820 Q204 850 226 872 Q248 894 279 894 Q310 894 331.5 872 Q353 850 353 820 Q353 789 331 767 Q309 745 277 745 Z M547 745 Q517 745 495.5 767.5 Q474 790 474 820 Q474 850 496 872 Q518 894 549 894 Q579 894 601 872 Q623 850 623 820 Q623 789 600.5 767 Q578 745 547 745 Z M490 580 L490 140 L770 140 L770 0 L50 0 L50 140 L330 140 L330 580 L50 580 L50 720 L770 720 L770 580 L490 580 Z " />
<glyph glyph-name="Igrave" unicode="&#xcc;" horiz-adv-x="820" d="M395 745 L229 920 L354 920 L432 745 L395 745 Z M490 580 L490 140 L770 140 L770 0 L50 0 L50 140 L330 140 L330 580 L50 580 L50 720 L770 720 L770 580 L490 580 Z " />
<glyph glyph-name="Ntilde" unicode="&#xd1;" horiz-adv-x="961" d="M329 745 L271 745 L271 780 Q271 817 307.5 843 Q344 869 387 869 Q419 869 440 860 Q461 851 487 833 Q507 818 522.5 811 Q538 804 559 804 Q585 804 601 817 Q617 830 617 852 L617 869 L675 869 L675 834 Q675 797 638.5 771 Q602 745 559 745 Q533 745 514 753 Q495 761 469 778 Q446 794 428.5 802 Q411 810 387 810 Q361 810 345 797 Q329 784 329 762 L329 745 Z M911 720 L911 0 L779 0 L210 488 L210 0 L50 0 L50 720 L182 720 L751 232 L751 720 L911 720 Z " />
<glyph glyph-name="Oacute" unicode="&#xd3;" horiz-adv-x="969" d="M544 920 L669 920 L503 745 L466 745 L544 920 Z M485 -15 Q355 -15 256.5 30 Q158 75 104 160 Q50 245 50 361 Q50 475 104.5 559.5 Q159 644 257.5 689.5 Q356 735 484 735 Q613 735 711.5 689.5 Q810 644 864.5 559.5 Q919 475 919 361 Q919 245 865 160 Q811 75 713 30 Q615 -15 485 -15 Z M485 135 Q564 135 625 162 Q686 189 720 240 Q754 291 754 361 Q754 430 719.5 480.5 Q685 531 624 558 Q563 585 484 585 Q405 585 344 558 Q283 531 249 480.5 Q215 430 215 361 Q215 291 249 240 Q283 189 344 162 Q405 135 485 135 Z " />
<glyph glyph-name="Ocircumflex" unicode="&#xd4;" horiz-adv-x="969" d="M431 745 L306 745 L468 920 L500 920 L662 745 L537 745 L484 879 L431 745 Z M484 735 Q613 735 711.5 689.5 Q810 644 864.5 559.5 Q919 475 919 361 Q919 245 865 160 Q811 75 713 30 Q615 -15 485 -15 Q355 -15 256.5 30 Q158 75 104 160 Q50 245 50 361 Q50 475 104.5 559.5 Q159 644 257.5 689.5 Q356 735 484 735 Z M485 135 Q564 135 625 162 Q686 189 720 240 Q754 291 754 361 Q754 430 719.5 480.5 Q685 531 624 558 Q563 585 484 585 Q405 585 344 558 Q283 531 249 480.5 Q215 430 215 361 Q215 291 249 240 Q283 189 344 162 Q405 135 485 135 Z " />
<glyph glyph-name="Odieresis" unicode="&#xd6;" horiz-adv-x="969" d="M349 670 Q319 670 297.5 692.5 Q276 715 276 745 Q276 775 298 797 Q320 819 351 819 Q382 819 403.5 797 Q425 775 425 745 Q425 714 403 692 Q381 670 349 670 Z M619 670 Q589 670 567.5 692.5 Q546 715 546 745 Q546 775 568 797 Q590 819 621 819 Q651 819 673 797 Q695 775 695 745 Q695 714 672.5 692 Q650 670 619 670 Z M485 -15 Q285 -15 167.5 66.5 Q50 148 50 311 Q50 418 105 491 Q160 564 257.5 599.5 Q355 635 484 635 Q683 635 801 553.5 Q919 472 919 311 Q919 148 802 66.5 Q685 -15 485 -15 Z M485 135 Q610 135 682 176.5 Q754 218 754 311 Q754 403 681 444 Q608 485 484 485 Q360 485 287.5 444 Q215 403 215 311 Q215 135 485 135 Z " />
<glyph glyph-name="Ograve" unicode="&#xd2;" horiz-adv-x="969" d="M300 920 L425 920 L503 745 L466 745 L300 920 Z M485 -15 Q355 -15 256.5 30 Q158 75 104 160 Q50 245 50 361 Q50 475 104.5 559.5 Q159 644 257.5 689.5 Q356 735 484 735 Q613 735 711.5 689.5 Q810 644 864.5 559.5 Q919 475 919 361 Q919 245 865 160 Q811 75 713 30 Q615 -15 485 -15 Z M485 135 Q564 135 625 162 Q686 189 720 240 Q754 291 754 361 Q754 430 719.5 480.5 Q685 531 624 558 Q563 585 484 585 Q405 585 344 558 Q283 531 249 480.5 Q215 430 215 361 Q215 291 249 240 Q283 189 344 162 Q405 135 485 135 Z " />
<glyph glyph-name="Otilde" unicode="&#xd5;" horiz-adv-x="969" d="M290 780 Q290 817 326.5 843 Q363 869 406 869 Q438 869 459 860 Q480 851 506 833 Q526 818 541.5 811 Q557 804 578 804 Q604 804 620 817 Q636 830 636 852 L636 869 L694 869 L694 834 Q694 797 657.5 771 Q621 745 578 745 Q552 745 533 753 Q514 761 488 778 Q465 794 447.5 802 Q430 810 406 810 Q380 810 364 797 Q348 784 348 762 L348 745 L290 745 L290 780 Z M485 -15 Q355 -15 256.5 30 Q158 75 104 160 Q50 245 50 361 Q50 475 104.5 559.5 Q159 644 257.5 689.5 Q356 735 484 735 Q613 735 711.5 689.5 Q810 644 864.5 559.5 Q919 475 919 361 Q919 245 865 160 Q811 75 713 30 Q615 -15 485 -15 Z M485 135 Q564 135 625 162 Q686 189 720 240 Q754 291 754 361 Q754 430 719.5 480.5 Q685 531 624 558 Q563 585 484 585 Q405 585 344 558 Q283 531 249 480.5 Q215 430 215 361 Q215 291 249 240 Q283 189 344 162 Q405 135 485 135 Z " />
<glyph glyph-name="Scaron" unicode="&#x160;" horiz-adv-x="919" d="M459 745 L297 920 L422 920 L475 786 L528 920 L653 920 L491 745 L459 745 Z M469 437 Q591 435 676.5 416 Q762 397 813 347.5 Q864 298 864 211 Q864 138 817 87.5 Q770 37 685.5 11 Q601 -15 490 -15 Q356 -15 236 19 Q116 53 55 107 L92 249 Q184 186 285 158 Q386 130 520 130 Q615 130 657 153 Q699 176 699 211 Q699 244 670.5 259.5 Q642 275 599.5 279.5 Q557 284 477 287 Q445 287 429 288 Q249 294 161.5 351 Q74 408 74 518 Q74 627 168 681 Q262 735 421 735 Q676 735 847 616 L811 472 Q728 531 616 560.5 Q504 590 385 590 Q322 590 280.5 572.5 Q239 555 239 518 Q239 474 293 456.5 Q347 439 469 437 Z " />
<glyph glyph-name="Uacute" unicode="&#xda;" horiz-adv-x="920" d="M524 920 L649 920 L483 745 L446 745 L524 920 Z M460 -15 Q335 -15 242.5 25 Q150 65 100 142 Q50 219 50 328 L50 720 L210 720 L210 368 Q210 279 236.5 228.5 Q263 178 317 156.5 Q371 135 460 135 Q549 135 603 156.5 Q657 178 683.5 228.5 Q710 279 710 368 L710 720 L870 720 L870 328 Q870 219 820 142 Q770 65 677.5 25 Q585 -15 460 -15 Z " />
<glyph glyph-name="Ucircumflex" unicode="&#xdb;" horiz-adv-x="920" d="M405 745 L280 745 L442 920 L474 920 L636 745 L511 745 L458 879 L405 745 Z M870 720 L870 328 Q870 219 820 142 Q770 65 677.5 25 Q585 -15 460 -15 Q335 -15 242.5 25 Q150 65 100 142 Q50 219 50 328 L50 720 L210 720 L210 368 Q210 279 236.5 228.5 Q263 178 317 156.5 Q371 135 460 135 Q549 135 603 156.5 Q657 178 683.5 228.5 Q710 279 710 368 L710 720 L870 720 Z " />
<glyph glyph-name="Udieresis" unicode="&#xdc;" horiz-adv-x="920" d="M460 -15 Q335 -15 242.5 25 Q150 65 100 142 Q50 219 50 328 L50 720 L210 720 L210 368 Q210 279 236.5 228.5 Q263 178 317 156.5 Q371 135 460 135 Q549 135 603 156.5 Q657 178 683.5 228.5 Q710 279 710 368 L710 720 L870 720 L870 328 Q870 219 820 142 Q770 65 677.5 25 Q585 -15 460 -15 Z M336 571 Q306 571 284.5 593.5 Q263 616 263 646 Q263 676 285 698 Q307 720 338 720 Q369 720 390.5 698 Q412 676 412 646 Q412 615 390 593 Q368 571 336 571 Z M580 571 Q550 571 528.5 593.5 Q507 616 507 646 Q507 676 529 698 Q551 720 582 720 Q612 720 634 698 Q656 676 656 646 Q656 615 633.5 593 Q611 571 580 571 Z " />
<glyph glyph-name="Ugrave" unicode="&#xd9;" horiz-adv-x="940" d="M300 920 L425 920 L503 745 L466 745 L300 920 Z M470 -15 Q341 -15 246.5 28.5 Q152 72 101 152.5 Q50 233 50 343 L50 720 L210 720 L210 383 Q210 250 271 192.5 Q332 135 470 135 Q608 135 669 192.5 Q730 250 730 383 L730 720 L890 720 L890 343 Q890 233 839 152.5 Q788 72 693.5 28.5 Q599 -15 470 -15 Z " />
<glyph glyph-name="Yacute" unicode="&#xdd;" horiz-adv-x="936" d="M534 920 L659 920 L493 745 L456 745 L534 920 Z M388 253 L20 720 L217 720 L468 395 L719 720 L916 720 L548 253 L548 0 L388 0 L388 253 Z " />
<glyph glyph-name="Ydieresis" unicode="&#x178;" horiz-adv-x="936" d="M333 745 Q303 745 281.5 767.5 Q260 790 260 820 Q260 850 282 872 Q304 894 335 894 Q366 894 387.5 872 Q409 850 409 820 Q409 789 387 767 Q365 745 333 745 Z M603 745 Q573 745 551.5 767.5 Q530 790 530 820 Q530 850 552 872 Q574 894 605 894 Q635 894 657 872 Q679 850 679 820 Q679 789 656.5 767 Q634 745 603 745 Z M388 253 L20 720 L217 720 L468 395 L719 720 L916 720 L548 253 L548 0 L388 0 L388 253 Z " />
<glyph glyph-name="Zcaron" unicode="&#x17d;" horiz-adv-x="904" d="M419 745 L257 920 L382 920 L435 786 L488 920 L613 920 L451 745 L419 745 Z M854 140 L854 0 L50 0 L50 117 L607 580 L50 580 L50 720 L852 720 L852 605 L299 140 L854 140 Z " />
<glyph glyph-name="aacute" unicode="&#xe1;" horiz-adv-x="789" d="M384 590 L347 590 L425 765 L550 765 L384 590 Z M363 560 Q465 560 550.5 533 Q636 506 687.5 451.5 Q739 397 739 318 L739 0 L630 0 L596 72 Q553 28 492 7 Q431 -14 341 -14 Q201 -14 125.5 34.5 Q50 83 50 175 Q50 235 92 277.5 Q134 320 204.5 342 Q275 364 359 364 Q496 364 577 300 Q573 370 511.5 400 Q450 430 355 430 Q285 430 221.5 415 Q158 400 107 374 L57 496 Q186 560 363 560 Z M210 175 Q210 141 254 126.5 Q298 112 362 112 Q500 112 577 175 Q539 206 484.5 222.5 Q430 239 362 239 Q299 239 254.5 224 Q210 209 210 175 Z " />
<glyph glyph-name="acircumflex" unicode="&#xe2;" horiz-adv-x="789" d="M321 590 L196 590 L358 765 L390 765 L552 590 L427 590 L374 724 L321 590 Z M363 560 Q465 560 550.5 533 Q636 506 687.5 451.5 Q739 397 739 318 L739 0 L630 0 L596 72 Q553 28 492 7 Q431 -14 341 -14 Q201 -14 125.5 34.5 Q50 83 50 175 Q50 235 92 277.5 Q134 320 204.5 342 Q275 364 359 364 Q496 364 577 300 Q573 370 511.5 400 Q450 430 355 430 Q285 430 221.5 415 Q158 400 107 374 L57 496 Q186 560 363 560 Z M210 175 Q210 141 254 126.5 Q298 112 362 112 Q500 112 577 175 Q539 206 484.5 222.5 Q430 239 362 239 Q299 239 254.5 224 Q210 209 210 175 Z " />
<glyph glyph-name="adieresis" unicode="&#xe4;" horiz-adv-x="789" d="M237 589 Q207 589 185.5 611.5 Q164 634 164 664 Q164 694 186 716 Q208 738 239 738 Q270 738 291.5 716 Q313 694 313 664 Q313 633 291 611 Q269 589 237 589 Z M507 589 Q477 589 455.5 611.5 Q434 634 434 664 Q434 694 456 716 Q478 738 509 738 Q539 738 561 716 Q583 694 583 664 Q583 633 560.5 611 Q538 589 507 589 Z M363 560 Q465 560 550.5 533 Q636 506 687.5 451.5 Q739 397 739 318 L739 0 L630 0 L596 72 Q553 28 492 7 Q431 -14 341 -14 Q201 -14 125.5 34.5 Q50 83 50 175 Q50 235 92 277.5 Q134 320 204.5 342 Q275 364 359 364 Q496 364 577 300 Q573 370 511.5 400 Q450 430 355 430 Q285 430 221.5 415 Q158 400 107 374 L57 496 Q186 560 363 560 Z M210 175 Q210 141 254 126.5 Q298 112 362 112 Q500 112 577 175 Q539 206 484.5 222.5 Q430 239 362 239 Q299 239 254.5 224 Q210 209 210 175 Z " />
<glyph glyph-name="agrave" unicode="&#xe0;" horiz-adv-x="789" d="M362 590 L196 765 L321 765 L399 590 L362 590 Z M363 560 Q465 560 550.5 533 Q636 506 687.5 451.5 Q739 397 739 318 L739 0 L630 0 L596 72 Q553 28 492 7 Q431 -14 341 -14 Q201 -14 125.5 34.5 Q50 83 50 175 Q50 235 92 277.5 Q134 320 204.5 342 Q275 364 359 364 Q496 364 577 300 Q573 370 511.5 400 Q450 430 355 430 Q285 430 221.5 415 Q158 400 107 374 L57 496 Q186 560 363 560 Z M210 175 Q210 141 254 126.5 Q298 112 362 112 Q500 112 577 175 Q539 206 484.5 222.5 Q430 239 362 239 Q299 239 254.5 224 Q210 209 210 175 Z " />
<glyph glyph-name="aring" unicode="&#xe5;" horiz-adv-x="789" d="M371 590 Q330 590 301 619 Q272 648 272 689 Q272 730 301 759 Q330 788 371 788 Q412 788 441 759 Q470 730 470 689 Q470 648 441 619 Q412 590 371 590 Z M371 748 Q347 748 329.5 730.5 Q312 713 312 689 Q312 665 329.5 647.5 Q347 630 371 630 Q395 630 412.5 647.5 Q430 665 430 689 Q430 713 412.5 730.5 Q395 748 371 748 Z M363 560 Q465 560 550.5 533 Q636 506 687.5 451.5 Q739 397 739 318 L739 0 L630 0 L596 72 Q553 28 492 7 Q431 -14 341 -14 Q201 -14 125.5 34.5 Q50 83 50 175 Q50 235 92 277.5 Q134 320 204.5 342 Q275 364 359 364 Q496 364 577 300 Q573 370 511.5 400 Q450 430 355 430 Q285 430 221.5 415 Q158 400 107 374 L57 496 Q186 560 363 560 Z M210 175 Q210 141 254 126.5 Q298 112 362 112 Q500 112 577 175 Q539 206 484.5 222.5 Q430 239 362 239 Q299 239 254.5 224 Q210 209 210 175 Z " />
<glyph glyph-name="atilde" unicode="&#xe3;" horiz-adv-x="789" d="M243 590 L185 590 L185 625 Q185 662 221.5 688 Q258 714 301 714 Q333 714 354 705 Q375 696 401 678 Q421 663 436.5 656 Q452 649 473 649 Q499 649 515 662 Q531 675 531 697 L531 714 L589 714 L589 679 Q589 641 553 615.5 Q517 590 473 590 Q447 590 428 598 Q409 606 383 623 Q360 639 342.5 647 Q325 655 301 655 Q275 655 259 642 Q243 629 243 607 L243 590 Z M363 560 Q465 560 550.5 533 Q636 506 687.5 451.5 Q739 397 739 318 L739 0 L630 0 L596 72 Q553 28 492 7 Q431 -14 341 -14 Q201 -14 125.5 34.5 Q50 83 50 175 Q50 235 92 277.5 Q134 320 204.5 342 Q275 364 359 364 Q496 364 577 300 Q573 370 511.5 400 Q450 430 355 430 Q285 430 221.5 415 Q158 400 107 374 L57 496 Q186 560 363 560 Z M210 175 Q210 141 254 126.5 Q298 112 362 112 Q500 112 577 175 Q539 206 484.5 222.5 Q430 239 362 239 Q299 239 254.5 224 Q210 209 210 175 Z " />
<glyph glyph-name="ccedilla" unicode="&#xe7;" horiz-adv-x="725" d="M396 -15 Q285 -15 202.5 19.5 Q120 54 75 119.5 Q30 185 30 273 Q30 360 75 425 Q120 490 203 525.5 Q286 561 396 561 Q484 561 564.5 541 Q645 521 690 489 L645 361 Q595 390 532 408 Q469 426 413 426 Q313 426 251.5 384 Q190 342 190 273 Q190 228 218 193.5 Q246 159 296.5 140 Q347 121 413 121 Q468 121 533.5 137.5 Q599 154 645 181 L690 57 Q645 24 565.5 4.5 Q486 -15 396 -15 Z M382 -39 L419 -39 L341 -214 L216 -214 L382 -39 Z " />
<glyph glyph-name="eacute" unicode="&#xe9;" horiz-adv-x="793" d="M408 590 L371 590 L449 765 L574 765 L408 590 Z M390 560 Q744 560 743 217 L189 217 Q203 166 257 140.5 Q311 115 390 115 Q479 115 541.5 129 Q604 143 649 173 L709 69 Q650 25 570.5 5 Q491 -15 389 -15 Q279 -15 198 19.5 Q117 54 73.5 118.5 Q30 183 30 270 Q30 398 117 479 Q204 560 390 560 Z M390 430 Q212 430 191 337 L581 337 Q570 384 523.5 407 Q477 430 390 430 Z " />
<glyph glyph-name="ecircumflex" unicode="&#xea;" horiz-adv-x="793" d="M332 590 L207 590 L369 765 L401 765 L563 590 L438 590 L385 724 L332 590 Z M390 560 Q744 560 743 217 L189 217 Q203 166 257 140.5 Q311 115 390 115 Q479 115 541.5 129 Q604 143 649 173 L709 69 Q650 25 570.5 5 Q491 -15 389 -15 Q279 -15 198 19.5 Q117 54 73.5 118.5 Q30 183 30 270 Q30 398 117 479 Q204 560 390 560 Z M390 430 Q212 430 191 337 L581 337 Q570 384 523.5 407 Q477 430 390 430 Z " />
<glyph glyph-name="edieresis" unicode="&#xeb;" horiz-adv-x="793" d="M250 589 Q220 589 198.5 611.5 Q177 634 177 664 Q177 694 199 716 Q221 738 252 738 Q283 738 304.5 716 Q326 694 326 664 Q326 633 304 611 Q282 589 250 589 Z M520 589 Q490 589 468.5 611.5 Q447 634 447 664 Q447 694 469 716 Q491 738 522 738 Q552 738 574 716 Q596 694 596 664 Q596 633 573.5 611 Q551 589 520 589 Z M390 560 Q744 560 743 217 L189 217 Q203 166 257 140.5 Q311 115 390 115 Q479 115 541.5 129 Q604 143 649 173 L709 69 Q650 25 570.5 5 Q491 -15 389 -15 Q279 -15 198 19.5 Q117 54 73.5 118.5 Q30 183 30 270 Q30 398 117 479 Q204 560 390 560 Z M390 430 Q212 430 191 337 L581 337 Q570 384 523.5 407 Q477 430 390 430 Z " />
<glyph glyph-name="egrave" unicode="&#xe8;" horiz-adv-x="793" d="M366 590 L200 765 L325 765 L403 590 L366 590 Z M390 560 Q744 560 743 217 L189 217 Q203 166 257 140.5 Q311 115 390 115 Q479 115 541.5 129 Q604 143 649 173 L709 69 Q650 25 570.5 5 Q491 -15 389 -15 Q279 -15 198 19.5 Q117 54 73.5 118.5 Q30 183 30 270 Q30 398 117 479 Q204 560 390 560 Z M390 430 Q212 430 191 337 L581 337 Q570 384 523.5 407 Q477 430 390 430 Z " />
<glyph glyph-name="iacute" unicode="&#xed;" horiz-adv-x="306" d="M191 765 L316 765 L150 590 L113 590 L191 765 Z M50 545 Q88 526 130 526 Q173 526 210 545 L210 0 L50 0 L50 545 Z " />
<glyph glyph-name="icircumflex" unicode="&#xee;" horiz-adv-x="276" d="M85 590 L-40 590 L122 765 L154 765 L316 590 L191 590 L138 724 L85 590 Z M55 545 Q93 526 135 526 Q178 526 215 545 L215 0 L55 0 L55 545 Z " />
<glyph glyph-name="idieresis" unicode="&#xef;" horiz-adv-x="438" d="M123 590 Q93 590 71.5 612.5 Q50 635 50 665 Q50 695 72 717 Q94 739 125 739 Q156 739 177.5 717 Q199 695 199 665 Q199 634 177 612 Q155 590 123 590 Z M312 590 Q282 590 260.5 612.5 Q239 635 239 665 Q239 695 261 717 Q283 739 314 739 Q344 739 366 717 Q388 695 388 665 Q388 634 365.5 612 Q343 590 312 590 Z M141 545 Q179 526 221 526 Q264 526 301 545 L301 0 L141 0 L141 545 Z " />
<glyph glyph-name="igrave" unicode="&#xec;" horiz-adv-x="325" d="M10 765 L135 765 L213 590 L176 590 L10 765 Z M115 545 Q153 526 195 526 Q238 526 275 545 L275 0 L115 0 L115 545 Z " />
<glyph glyph-name="ntilde" unicode="&#xf1;" horiz-adv-x="763" d="M292 590 L234 590 L234 625 Q234 662 270.5 688 Q307 714 350 714 Q382 714 403 705 Q424 696 450 678 Q470 663 485.5 656 Q501 649 522 649 Q548 649 564 662 Q580 675 580 697 L580 714 L638 714 L638 679 Q638 641 602 615.5 Q566 590 522 590 Q496 590 477 598 Q458 606 432 623 Q409 639 391.5 647 Q374 655 350 655 Q324 655 308 642 Q292 629 292 607 L292 590 Z M433 561 Q568 561 640.5 490.5 Q713 420 713 283 L713 0 L553 0 L553 270 Q553 356 513.5 398.5 Q474 441 398 441 Q337 441 288 417 Q239 393 210 353 L210 0 L50 0 L50 545 L159 545 L206 445 Q242 494 300 527.5 Q358 561 433 561 Z " />
<glyph glyph-name="oacute" unicode="&#xf3;" horiz-adv-x="766" d="M444 765 L569 765 L403 590 L366 590 L444 765 Z M383 -15 Q279 -15 199 20.5 Q119 56 74.5 121 Q30 186 30 273 Q30 358 74 423 Q118 488 198.5 524 Q279 560 383 560 Q487 560 567.5 524 Q648 488 692 423 Q736 358 736 273 Q736 186 691.5 121 Q647 56 567 20.5 Q487 -15 383 -15 Z M383 115 Q474 115 525 155 Q576 195 576 273 Q576 348 523.5 389 Q471 430 382 430 Q293 430 241.5 389 Q190 348 190 273 Q190 195 241 155 Q292 115 383 115 Z " />
<glyph glyph-name="ocircumflex" unicode="&#xf4;" horiz-adv-x="766" d="M330 590 L205 590 L367 765 L399 765 L561 590 L436 590 L383 724 L330 590 Z M383 560 Q487 560 567.5 524 Q648 488 692 423 Q736 358 736 273 Q736 186 691.5 121 Q647 56 567 20.5 Q487 -15 383 -15 Q279 -15 199 20.5 Q119 56 74.5 121 Q30 186 30 273 Q30 358 74 423 Q118 488 198.5 524 Q279 560 383 560 Z M383 115 Q474 115 525 155 Q576 195 576 273 Q576 348 523.5 389 Q471 430 382 430 Q293 430 241.5 389 Q190 348 190 273 Q190 195 241 155 Q292 115 383 115 Z " />
<glyph glyph-name="odieresis" unicode="&#xf6;" horiz-adv-x="766" d="M247 590 Q217 590 195.5 612.5 Q174 635 174 665 Q174 695 196 717 Q218 739 249 739 Q280 739 301.5 717 Q323 695 323 665 Q323 634 301 612 Q279 590 247 590 Z M517 590 Q487 590 465.5 612.5 Q444 635 444 665 Q444 695 466 717 Q488 739 519 739 Q549 739 571 717 Q593 695 593 665 Q593 634 570.5 612 Q548 590 517 590 Z M383 -15 Q279 -15 199 20.5 Q119 56 74.5 121 Q30 186 30 273 Q30 358 74 423 Q118 488 198.5 524 Q279 560 383 560 Q487 560 567.5 524 Q648 488 692 423 Q736 358 736 273 Q736 186 691.5 121 Q647 56 567 20.5 Q487 -15 383 -15 Z M383 115 Q474 115 525 155 Q576 195 576 273 Q576 348 523.5 389 Q471 430 382 430 Q293 430 241.5 389 Q190 348 190 273 Q190 195 241 155 Q292 115 383 115 Z " />
<glyph glyph-name="ograve" unicode="&#xf2;" horiz-adv-x="766" d="M198 765 L323 765 L401 590 L364 590 L198 765 Z M383 -15 Q279 -15 199 20.5 Q119 56 74.5 121 Q30 186 30 273 Q30 358 74 423 Q118 488 198.5 524 Q279 560 383 560 Q487 560 567.5 524 Q648 488 692 423 Q736 358 736 273 Q736 186 691.5 121 Q647 56 567 20.5 Q487 -15 383 -15 Z M383 115 Q474 115 525 155 Q576 195 576 273 Q576 348 523.5 389 Q471 430 382 430 Q293 430 241.5 389 Q190 348 190 273 Q190 195 241 155 Q292 115 383 115 Z " />
<glyph glyph-name="otilde" unicode="&#xf5;" horiz-adv-x="766" d="M184 625 Q184 662 220.5 688 Q257 714 300 714 Q332 714 353 705 Q374 696 400 678 Q420 663 435.5 656 Q451 649 472 649 Q498 649 514 662 Q530 675 530 697 L530 714 L588 714 L588 679 Q588 641 552 615.5 Q516 590 472 590 Q446 590 427 598 Q408 606 382 623 Q359 639 341.5 647 Q324 655 300 655 Q274 655 258 642 Q242 629 242 607 L242 590 L184 590 L184 625 Z M383 -15 Q279 -15 199 20.5 Q119 56 74.5 121 Q30 186 30 273 Q30 358 74 423 Q118 488 198.5 524 Q279 560 383 560 Q487 560 567.5 524 Q648 488 692 423 Q736 358 736 273 Q736 186 691.5 121 Q647 56 567 20.5 Q487 -15 383 -15 Z M383 115 Q474 115 525 155 Q576 195 576 273 Q576 348 523.5 389 Q471 430 382 430 Q293 430 241.5 389 Q190 348 190 273 Q190 195 241 155 Q292 115 383 115 Z " />
<glyph glyph-name="scaron" unicode="&#x161;" horiz-adv-x="756" d="M367 590 L205 765 L330 765 L383 631 L436 765 L561 765 L399 590 L367 590 Z M354 338 Q459 338 531.5 329 Q604 320 657.5 281.5 Q711 243 711 162 Q711 75 628.5 30 Q546 -15 420 -15 Q313 -15 209 6.5 Q105 28 45 73 L72 201 Q214 112 419 112 Q469 112 510 123.5 Q551 135 551 162 Q551 189 519.5 198 Q488 207 419 207 Q298 207 224.5 218.5 Q151 230 107.5 268 Q64 306 64 384 Q64 437 99.5 477 Q135 517 199.5 538.5 Q264 560 349 560 Q466 560 561 535.5 Q656 511 705 469 L668 342 Q616 386 523 409.5 Q430 433 354 433 Q299 433 261.5 423 Q224 413 224 384 Q224 354 256 346 Q288 338 354 338 Z " />
<glyph glyph-name="uacute" unicode="&#xfa;" horiz-adv-x="763" d="M403 590 L366 590 L444 765 L569 765 L403 590 Z M713 545 L713 0 L604 0 L557 100 Q521 51 463 17.5 Q405 -16 330 -16 Q195 -16 122.5 54.5 Q50 125 50 262 L50 545 L210 545 L210 275 Q210 189 249.5 146.5 Q289 104 365 104 Q426 104 475 128 Q524 152 553 192 L553 545 L713 545 Z " />
<glyph glyph-name="ucircumflex" unicode="&#xfb;" horiz-adv-x="763" d="M330 590 L205 590 L367 765 L399 765 L561 590 L436 590 L383 724 L330 590 Z M713 545 L713 0 L604 0 L557 100 Q521 51 463 17.5 Q405 -16 330 -16 Q195 -16 122.5 54.5 Q50 125 50 262 L50 545 L210 545 L210 275 Q210 189 249.5 146.5 Q289 104 365 104 Q426 104 475 128 Q524 152 553 192 L553 545 L713 545 Z " />
<glyph glyph-name="udieresis" unicode="&#xfc;" horiz-adv-x="763" d="M247 590 Q217 590 195.5 612.5 Q174 635 174 665 Q174 695 196 717 Q218 739 249 739 Q280 739 301.5 717 Q323 695 323 665 Q323 634 301 612 Q279 590 247 590 Z M517 590 Q487 590 465.5 612.5 Q444 635 444 665 Q444 695 466 717 Q488 739 519 739 Q549 739 571 717 Q593 695 593 665 Q593 634 570.5 612 Q548 590 517 590 Z M713 545 L713 0 L604 0 L557 100 Q521 51 463 17.5 Q405 -16 330 -16 Q195 -16 122.5 54.5 Q50 125 50 262 L50 545 L210 545 L210 275 Q210 189 249.5 146.5 Q289 104 365 104 Q426 104 475 128 Q524 152 553 192 L553 545 L713 545 Z " />
<glyph glyph-name="ugrave" unicode="&#xf9;" horiz-adv-x="763" d="M389 590 L223 765 L348 765 L426 590 L389 590 Z M713 545 L713 0 L604 0 L557 100 Q521 51 463 17.5 Q405 -16 330 -16 Q195 -16 122.5 54.5 Q50 125 50 262 L50 545 L210 545 L210 275 Q210 189 249.5 146.5 Q289 104 365 104 Q426 104 475 128 Q524 152 553 192 L553 545 L713 545 Z " />
<glyph glyph-name="yacute" unicode="&#xfd;" horiz-adv-x="831" d="M425 590 L388 590 L466 765 L591 765 L425 590 Z M816 545 L410 -127 L229 -127 L325 33 L15 545 L196 545 L414 184 L634 545 L816 545 Z " />
<glyph glyph-name="ydieresis" unicode="&#xff;" horiz-adv-x="831" d="M276 590 Q246 590 224.5 612.5 Q203 635 203 665 Q203 695 225 717 Q247 739 278 739 Q309 739 330.5 717 Q352 695 352 665 Q352 634 330 612 Q308 590 276 590 Z M546 590 Q516 590 494.5 612.5 Q473 635 473 665 Q473 695 495 717 Q517 739 548 739 Q578 739 600 717 Q622 695 622 665 Q622 634 599.5 612 Q577 590 546 590 Z M816 545 L410 -127 L229 -127 L325 33 L15 545 L196 545 L414 184 L634 545 L816 545 Z " />
<glyph glyph-name="zcaron" unicode="&#x17e;" horiz-adv-x="773" d="M376 590 L214 765 L339 765 L392 631 L445 765 L570 765 L408 590 L376 590 Z M722 432 L311 140 L722 140 L722 0 L50 0 L50 114 L460 405 L55 405 L55 545 L723 545 L722 432 Z " />
<glyph glyph-name="uni0394" unicode="&#x394;" horiz-adv-x="965" d="M465 720 L498 720 L880 0 L85 0 L465 720 Z M781 53 L482 615 L184 53 L781 53 Z " />
<glyph glyph-name="uni03A9" unicode="&#x3a9;" horiz-adv-x="892" d="M842 359 Q842 269 800 191 Q758 113 685 61 L808 61 L808 0 L554 0 L554 62 Q619 83 670 127 Q721 171 750 231.5 Q779 292 779 359 Q779 444 734 516 Q689 588 612.5 630.5 Q536 673 446 673 Q356 673 279.5 630.5 Q203 588 158 516 Q113 444 113 359 Q113 292 141.5 232.5 Q170 173 220.5 128.5 Q271 84 335 63 L335 0 L81 0 L81 61 L208 61 Q135 113 92.5 191 Q50 269 50 359 Q50 460 103 546 Q156 632 247 682 Q338 732 446 732 Q554 732 645 682 Q736 632 789 546 Q842 460 842 359 Z " />
<glyph glyph-name="pi" unicode="&#x3c0;" horiz-adv-x="801" d="M746 -15 Q680 -15 639.5 -5 Q599 5 573.5 41.5 Q548 78 548 153 L548 510 L253 510 L253 0 L193 0 L193 510 L25 510 L25 570 L776 570 L776 510 L608 510 L608 160 Q608 115 618.5 90.5 Q629 66 658.5 54 Q688 42 746 42 L746 -15 Z " />
<glyph glyph-name="Euro" unicode="&#x20ac;" horiz-adv-x="1006" d="M614 135 Q690 135 770.5 157 Q851 179 921 226 L976 96 Q901 35 796.5 10 Q692 -15 595 -15 Q480 -15 387 19 Q294 53 233 117.5 Q172 182 152 272 L50 272 L50 332 L143 332 Q142 341 142 360 Q142 373 144 397 L50 397 L50 457 L154 457 Q177 543 238.5 606 Q300 669 392 702 Q484 735 595 735 Q696 735 802.5 705.5 Q909 676 976 616 L919 481 Q862 529 780.5 557.5 Q699 586 623 586 Q513 586 437 552.5 Q361 519 329 457 L664 457 L664 397 L310 397 Q307 379 307 360 Q307 350 309 332 L664 332 L664 272 L326 272 Q357 207 432.5 171 Q508 135 614 135 Z " />
<glyph glyph-name="partialdiff" unicode="&#x2202;" horiz-adv-x="982" d="M422 735 Q563 735 674.5 693.5 Q786 652 851.5 564.5 Q917 477 917 345 Q917 164 811.5 74.5 Q706 -15 471 -15 Q35 -15 35 230 Q35 305 84 360.5 Q133 416 231 446 Q329 476 471 476 Q545 476 623 454.5 Q701 433 745 401 Q733 496 642 540.5 Q551 585 417 585 Q341 585 267 574.5 Q193 564 132 547 L161 708 Q269 735 422 735 Z M471 135 Q573 135 645 158.5 Q717 182 749 238 Q709 279 637.5 302.5 Q566 326 471 326 Q348 326 274 302.5 Q200 279 200 230 Q200 180 273 157.5 Q346 135 471 135 Z " />
<glyph glyph-name="product" unicode="&#x220f;" horiz-adv-x="808" d="M202 585 L50 585 L50 645 L758 645 L758 585 L606 585 L606 0 L546 0 L546 585 L262 585 L262 0 L202 0 L202 585 Z " />
<glyph glyph-name="summation" unicode="&#x2211;" horiz-adv-x="748" d="M698 59 L698 -1 L50 -1 L50 73 L306 360 L61 642 L61 720 L682 720 L682 660 L133 660 L371 383 L371 339 L124 60 L698 59 Z " />
<glyph glyph-name="radical" unicode="&#x221a;" horiz-adv-x="779" d="M754 720 L459 2 L414 2 L173 505 L25 505 L25 570 L212 570 L433 114 L462 182 L690 720 L754 720 Z " />
<glyph glyph-name="infinity" unicode="&#x221e;" horiz-adv-x="858" d="M638 463 Q682 463 721 441.5 Q760 420 784 381.5 Q808 343 808 293 Q808 243 784.5 204.5 Q761 166 722 145 Q683 124 638 124 Q600 124 567.5 139 Q535 154 509.5 175.5 Q484 197 447 234 L429 252 L411 234 Q374 197 348.5 175.5 Q323 154 290.5 139 Q258 124 220 124 Q175 124 136 145 Q97 166 73.5 204.5 Q50 243 50 293 Q50 343 74 381.5 Q98 420 137 441.5 Q176 463 220 463 Q258 463 290.5 448 Q323 433 349 411.5 Q375 390 412 353 L429 336 L446 353 Q483 390 509 411.5 Q535 433 567.5 448 Q600 463 638 463 Z M111 293 Q111 261 127 236 Q143 211 168 197.5 Q193 184 220 184 Q247 184 273 198 Q299 212 321.5 232 Q344 252 386 294 Q380 300 343.5 335 Q307 370 277 386.5 Q247 403 220 403 Q193 403 168 389.5 Q143 376 127 351 Q111 326 111 293 Z M638 184 Q665 184 690 197.5 Q715 211 731 236 Q747 261 747 293 Q747 326 731 351 Q715 376 690 389.5 Q665 403 638 403 Q611 403 585 389 Q559 375 538 356.5 Q517 338 472 294 Q514 252 536.5 232 Q559 212 585 198 Q611 184 638 184 Z " />
<glyph glyph-name="integral" unicode="&#x222b;" horiz-adv-x="782" d="M321 545 Q321 618 351.5 669 Q382 720 434 746 Q486 772 550 772 Q652 772 747 714 L701 591 Q674 612 640.5 624 Q607 636 575 636 Q533 636 506.5 613.5 Q480 591 480 545 L480 114 Q480 -18 398.5 -92.5 Q317 -167 174 -167 Q118 -167 73 -153 Q28 -139 0 -120 L42 -3 Q65 -17 100 -26.5 Q135 -36 159 -36 Q233 -36 276.5 1.5 Q320 39 320 104 L320 520 L321 520 L321 545 Z " />
<glyph glyph-name="approxequal" unicode="&#x2248;" horiz-adv-x="770" d="M557 329 Q522 329 489 338.5 Q456 348 397 369 L372 378 Q320 397 280.5 407 Q241 417 209 417 Q178 417 148 402.5 Q118 388 84 355 L35 412 Q83 455 126 473.5 Q169 492 213 492 Q248 492 281 482.5 Q314 473 373 452 L398 443 Q450 424 489.5 414 Q529 404 561 404 Q592 404 622 418.5 Q652 433 686 466 L735 409 Q687 366 644 347.5 Q601 329 557 329 Z M557 159 Q522 159 489 168.5 Q456 178 397 199 L372 208 Q320 227 280.5 237 Q241 247 209 247 Q178 247 148 232.5 Q118 218 84 185 L35 242 Q83 285 126 303.5 Q169 322 213 322 Q248 322 281 312.5 Q314 303 373 282 L398 273 Q450 254 489.5 244 Q529 234 561 234 Q592 234 622 248.5 Q652 263 686 296 L735 239 Q687 196 644 177.5 Q601 159 557 159 Z " />
<glyph glyph-name="notequal" unicode="&#x2260;" horiz-adv-x="696" d="M422 385 L357 280 L646 280 L646 220 L319 220 L211 46 L159 78 L248 220 L50 220 L50 280 L285 280 L351 385 L50 385 L50 445 L388 445 L495 616 L546 584 L459 445 L646 445 L646 385 L422 385 Z " />
<glyph glyph-name="lessequal" unicode="&#x2264;" horiz-adv-x="562" d="M512 500 L152 368 L512 239 L512 170 L50 343 L50 392 L512 570 L512 500 Z M50 111 L512 111 L512 51 L50 51 L50 111 Z " />
<glyph glyph-name="greaterequal" unicode="&#x2265;" horiz-adv-x="562" d="M512 392 L512 343 L50 170 L50 239 L410 368 L50 500 L50 570 L512 392 Z M50 111 L512 111 L512 51 L50 51 L50 111 Z " />
<glyph glyph-name="lozenge" unicode="&#x25ca;" horiz-adv-x="709" d="M35 360 L336 720 L371 720 L674 360 L371 0 L336 0 L35 360 Z M596 360 L355 643 L114 360 L355 77 L596 360 Z " />
<glyph glyph-name="Abreve" unicode="&#x102;" horiz-adv-x="1067" d="M537 755 Q485 755 441 782.5 Q397 810 371 851 L412 882 Q461 806 536 806 L538 806 Q613 806 662 882 L703 851 Q677 810 633 782.5 Q589 755 537 755 Z M758 183 L309 183 L201 0 L15 0 L443 720 L623 720 L1052 0 L866 0 L758 183 Z M390 323 L676 323 L533 562 L390 323 Z " />
<glyph glyph-name="Amacron" unicode="&#x100;" horiz-adv-x="1067" d="M698 789 L359 789 L359 849 L698 849 L698 789 Z M758 183 L309 183 L201 0 L15 0 L443 720 L623 720 L1052 0 L866 0 L758 183 Z M390 323 L676 323 L533 562 L390 323 Z " />
<glyph glyph-name="Aogonek" unicode="&#x104;" horiz-adv-x="1067" d="M1094 -79 Q1094 -115 1087 -144.5 Q1080 -174 1052 -197.5 Q1024 -221 966 -221 Q902 -221 871.5 -190.5 Q841 -160 834 -119 Q833 -115 833 -106 Q833 -83 846 -48 L866 0 L758 183 L309 183 L201 0 L15 0 L443 720 L623 720 L1052 0 L932 0 L899 -81 Q894 -93 894 -105 Q894 -130 911.5 -148 Q929 -166 965 -166 Q1012 -166 1023 -133 Q1034 -100 1034 -60 L1094 -79 Z M390 323 L676 323 L533 562 L390 323 Z " />
<glyph glyph-name="Cacute" unicode="&#x106;" horiz-adv-x="914" d="M562 920 L687 920 L521 745 L484 745 L562 920 Z M503 -15 Q370 -15 267.5 30 Q165 75 107.5 159.5 Q50 244 50 360 Q50 474 108.5 559 Q167 644 269.5 689.5 Q372 735 503 735 Q604 735 711 705 Q818 675 884 616 L827 481 Q770 529 688.5 557.5 Q607 586 531 586 Q382 586 298.5 526.5 Q215 467 215 360 Q215 291 253 240 Q291 189 360.5 162 Q430 135 522 135 Q598 135 678.5 157 Q759 179 829 226 L884 96 Q809 35 704.5 10 Q600 -15 503 -15 Z " />
<glyph glyph-name="Ccaron" unicode="&#x10c;" horiz-adv-x="914" d="M486 745 L324 920 L449 920 L502 786 L555 920 L680 920 L518 745 L486 745 Z M522 135 Q598 135 678.5 157 Q759 179 829 226 L884 96 Q809 35 704.5 10 Q600 -15 503 -15 Q370 -15 267.5 30 Q165 75 107.5 159.5 Q50 244 50 360 Q50 474 108.5 559 Q167 644 269.5 689.5 Q372 735 503 735 Q604 735 711 705 Q818 675 884 616 L827 481 Q770 529 688.5 557.5 Q607 586 531 586 Q382 586 298.5 526.5 Q215 467 215 360 Q215 291 253 240 Q291 189 360.5 162 Q430 135 522 135 Z " />
<glyph glyph-name="Cdotaccent" unicode="&#x10a;" horiz-adv-x="914" d="M501 755 Q468 755 444.5 779 Q421 803 421 836 Q421 869 445 893 Q469 917 503 917 Q536 917 560 893 Q584 869 584 836 Q584 802 559.5 778.5 Q535 755 501 755 Z M503 -15 Q370 -15 267.5 30 Q165 75 107.5 159.5 Q50 244 50 360 Q50 474 108.5 559 Q167 644 269.5 689.5 Q372 735 503 735 Q604 735 711 705 Q818 675 884 616 L827 481 Q770 529 688.5 557.5 Q607 586 531 586 Q382 586 298.5 526.5 Q215 467 215 360 Q215 291 253 240 Q291 189 360.5 162 Q430 135 522 135 Q598 135 678.5 157 Q759 179 829 226 L884 96 Q809 35 704.5 10 Q600 -15 503 -15 Z " />
<glyph glyph-name="Dcaron" unicode="&#x10e;" horiz-adv-x="917" d="M375 745 L213 920 L338 920 L391 786 L444 920 L569 920 L407 745 L375 745 Z M429 720 Q647 720 764 627.5 Q881 535 882 359 Q881 183 764 91.5 Q647 0 428 0 L50 0 L50 720 L429 720 Z M409 140 Q565 140 641 194.5 Q717 249 717 359 Q717 469 641 524.5 Q565 580 409 580 L210 580 L210 140 L409 140 Z " />
<glyph glyph-name="Dcroat" unicode="&#x110;" horiz-adv-x="1011" d="M523 720 Q741 720 858 627.5 Q975 535 976 359 Q975 183 858 91.5 Q741 0 522 0 L144 0 L144 330 L50 330 L50 390 L144 390 L144 720 L523 720 Z M503 140 Q659 140 735 194.5 Q811 249 811 359 Q811 469 735 524.5 Q659 580 503 580 L304 580 L304 390 L429 390 L429 330 L304 330 L304 140 L503 140 Z " />
<glyph glyph-name="Ecaron" unicode="&#x11a;" horiz-adv-x="832" d="M415 745 L253 920 L378 920 L431 786 L484 920 L609 920 L447 745 L415 745 Z M210 580 L210 428 L782 428 L782 293 L210 293 L210 140 L782 140 L782 0 L50 0 L50 720 L782 720 L782 580 L210 580 Z " />
<glyph glyph-name="Edotaccent" unicode="&#x116;" horiz-adv-x="832" d="M426 755 Q393 755 369.5 779 Q346 803 346 836 Q346 869 370 893 Q394 917 428 917 Q461 917 485 893 Q509 869 509 836 Q509 802 484.5 778.5 Q460 755 426 755 Z M50 720 L782 720 L782 580 L210 580 L210 428 L782 428 L782 293 L210 293 L210 140 L782 140 L782 0 L50 0 L50 720 Z " />
<glyph glyph-name="Emacron" unicode="&#x112;" horiz-adv-x="832" d="M251 849 L590 849 L590 789 L251 789 L251 849 Z M50 720 L782 720 L782 580 L210 580 L210 428 L782 428 L782 293 L210 293 L210 140 L782 140 L782 0 L50 0 L50 720 Z " />
<glyph glyph-name="Eogonek" unicode="&#x118;" horiz-adv-x="832" d="M210 580 L210 428 L782 428 L782 293 L210 293 L210 140 L782 140 L782 0 L418 0 L385 -81 Q380 -93 380 -105 Q380 -130 397.5 -148 Q415 -166 451 -166 Q498 -166 509 -133 Q520 -100 520 -60 L580 -79 Q580 -115 573 -144.5 Q566 -174 538 -197.5 Q510 -221 452 -221 Q388 -221 357.5 -190.5 Q327 -160 320 -119 Q319 -115 319 -106 Q319 -83 332 -48 L352 0 L50 0 L50 720 L782 720 L782 580 L210 580 Z " />
<glyph glyph-name="Gbreve" unicode="&#x11e;" horiz-adv-x="979" d="M537 765 Q485 765 441 792.5 Q397 820 371 861 L412 892 Q461 816 536 816 L538 816 Q613 816 662 892 L703 861 Q677 820 633 792.5 Q589 765 537 765 Z M929 403 L929 57 Q744 -15 537 -15 Q384 -15 274.5 29 Q165 73 107.5 157.5 Q50 242 50 362 Q50 474 110.5 558.5 Q171 643 281.5 689 Q392 735 537 735 Q641 735 735.5 714.5 Q830 694 916 638 L856 501 Q717 586 546 586 Q447 586 372 558.5 Q297 531 256 480.5 Q215 430 215 363 Q215 250 299.5 192.5 Q384 135 553 135 Q678 135 769 161 L769 263 L526 263 L526 403 L929 403 Z " />
<glyph glyph-name="Gcommaaccent" unicode="&#x122;" horiz-adv-x="979" d="M929 403 L929 57 Q744 -15 537 -15 Q384 -15 274.5 29 Q165 73 107.5 157.5 Q50 242 50 362 Q50 474 110.5 558.5 Q171 643 281.5 689 Q392 735 537 735 Q641 735 735.5 714.5 Q830 694 916 638 L856 501 Q717 586 546 586 Q447 586 372 558.5 Q297 531 256 480.5 Q215 430 215 363 Q215 250 299.5 192.5 Q384 135 553 135 Q678 135 769 161 L769 263 L526 263 L526 403 L929 403 Z M478 -37 L595 -37 L479 -247 L442 -247 L478 -37 Z " />
<glyph glyph-name="Gdotaccent" unicode="&#x120;" horiz-adv-x="979" d="M536 755 Q503 755 479.5 779 Q456 803 456 836 Q456 869 480 893 Q504 917 538 917 Q571 917 595 893 Q619 869 619 836 Q619 802 594.5 778.5 Q570 755 536 755 Z M929 403 L929 57 Q744 -15 537 -15 Q384 -15 274.5 29 Q165 73 107.5 157.5 Q50 242 50 362 Q50 474 110.5 558.5 Q171 643 281.5 689 Q392 735 537 735 Q641 735 735.5 714.5 Q830 694 916 638 L856 501 Q717 586 546 586 Q447 586 372 558.5 Q297 531 256 480.5 Q215 430 215 363 Q215 250 299.5 192.5 Q384 135 553 135 Q678 135 769 161 L769 263 L526 263 L526 403 L929 403 Z " />
<glyph glyph-name="Hbar" unicode="&#x126;" horiz-adv-x="947" d="M897 720 L897 0 L737 0 L737 170 L210 170 L210 0 L50 0 L50 720 L210 720 L210 553 L737 553 L737 720 L897 720 Z M737 310 L737 413 L210 413 L210 310 L737 310 Z " />
<glyph glyph-name="IJ" unicode="&#x132;" horiz-adv-x="1303" d="M1268 235 Q1268 154 1223 98 Q1178 42 1101 13.5 Q1024 -15 931 -15 Q834 -15 735 13.5 Q636 42 560 94 L576 237 Q649 201 755.5 170 Q862 139 947 139 Q1021 139 1064.5 168.5 Q1108 198 1108 263 L1108 580 L490 580 L490 0 L50 0 L50 140 L330 140 L330 580 L50 580 L50 720 L1268 720 L1268 235 Z " />
<glyph glyph-name="Idot" unicode="&#x130;" horiz-adv-x="820" d="M407 755 Q374 755 350.5 779 Q327 803 327 836 Q327 869 351 893 Q375 917 409 917 Q442 917 466 893 Q490 869 490 836 Q490 802 465.5 778.5 Q441 755 407 755 Z M490 580 L490 140 L770 140 L770 0 L50 0 L50 140 L330 140 L330 580 L50 580 L50 720 L770 720 L770 580 L490 580 Z " />
<glyph glyph-name="Imacron" unicode="&#x12a;" horiz-adv-x="820" d="M575 789 L236 789 L236 849 L575 849 L575 789 Z M490 580 L490 140 L770 140 L770 0 L50 0 L50 140 L330 140 L330 580 L50 580 L50 720 L770 720 L770 580 L490 580 Z " />
<glyph glyph-name="Iogonek" unicode="&#x12e;" horiz-adv-x="820" d="M490 580 L490 140 L770 140 L770 0 L433 0 L400 -81 Q395 -93 395 -105 Q395 -130 412.5 -148 Q430 -166 466 -166 Q513 -166 524 -133 Q535 -100 535 -60 L595 -79 Q595 -115 588 -144.5 Q581 -174 553 -197.5 Q525 -221 467 -221 Q403 -221 372.5 -190.5 Q342 -160 335 -119 Q334 -115 334 -106 Q334 -83 347 -48 L367 0 L50 0 L50 140 L330 140 L330 580 L50 580 L50 720 L770 720 L770 580 L490 580 Z " />
<glyph glyph-name="Kcommaaccent" unicode="&#x136;" horiz-adv-x="920" d="M895 0 L697 0 L408 413 L210 264 L210 -2 L50 -2 L50 722 L210 722 L210 439 L590 722 L824 722 L536 507 L895 0 Z M408 -37 L525 -37 L409 -247 L372 -247 L408 -37 Z " />
<glyph glyph-name="Lacute" unicode="&#x139;" horiz-adv-x="810" d="M192 920 L317 920 L151 745 L114 745 L192 920 Z M50 720 L210 720 L210 140 L775 140 L775 0 L50 0 L50 720 Z " />
<glyph glyph-name="Lcaron" unicode="&#x13d;" horiz-adv-x="810" d="M50 720 L210 720 L210 140 L775 140 L775 0 L50 0 L50 720 Z M414 720 L539 720 L445 509 L413 509 L414 720 Z " />
<glyph glyph-name="Lcommaaccent" unicode="&#x13b;" horiz-adv-x="810" d="M50 720 L210 720 L210 140 L775 140 L775 0 L50 0 L50 720 Z M378 -37 L495 -37 L379 -247 L342 -247 L378 -37 Z " />
<glyph glyph-name="Ldot" unicode="&#x13f;" horiz-adv-x="810" d="M50 720 L210 720 L210 140 L775 140 L775 0 L50 0 L50 720 Z M516 365 Q483 365 459.5 389 Q436 413 436 446 Q436 479 460 503 Q484 527 518 527 Q551 527 575 503 Q599 479 599 446 Q599 412 574.5 388.5 Q550 365 516 365 Z " />
<glyph glyph-name="Nacute" unicode="&#x143;" horiz-adv-x="941" d="M477 745 L440 745 L518 920 L643 920 L477 745 Z M891 720 L891 0 L759 0 L210 487 L210 0 L50 0 L50 720 L182 720 L731 233 L731 720 L891 720 Z " />
<glyph glyph-name="Ncaron" unicode="&#x147;" horiz-adv-x="941" d="M444 745 L282 920 L407 920 L460 786 L513 920 L638 920 L476 745 L444 745 Z M891 720 L891 0 L759 0 L210 487 L210 0 L50 0 L50 720 L182 720 L731 233 L731 720 L891 720 Z " />
<glyph glyph-name="Ncommaaccent" unicode="&#x145;" horiz-adv-x="941" d="M891 720 L891 0 L759 0 L210 487 L210 0 L50 0 L50 720 L182 720 L731 233 L731 720 L891 720 Z M428 -37 L545 -37 L429 -247 L392 -247 L428 -37 Z " />
<glyph glyph-name="Eng" unicode="&#x14a;" horiz-adv-x="941" d="M891 720 L891 0 Q887 -127 806 -198.5 Q725 -270 585 -270 Q529 -270 484 -256 Q439 -242 411 -223 L453 -106 Q476 -120 511 -129.5 Q546 -139 570 -139 Q644 -139 687.5 -101.5 Q731 -64 731 1 L731 25 L210 487 L210 0 L50 0 L50 720 L182 720 L731 233 L731 720 L891 720 Z " />
<glyph glyph-name="Ohungarumlaut" unicode="&#x150;" horiz-adv-x="969" d="M514 913 L595 913 L440 746 L359 746 L514 913 Z M674 913 L755 913 L600 746 L519 746 L674 913 Z M485 -15 Q355 -15 256.5 30 Q158 75 104 160 Q50 245 50 361 Q50 475 104.5 559.5 Q159 644 257.5 689.5 Q356 735 484 735 Q613 735 711.5 689.5 Q810 644 864.5 559.5 Q919 475 919 361 Q919 245 865 160 Q811 75 713 30 Q615 -15 485 -15 Z M485 135 Q564 135 625 162 Q686 189 720 240 Q754 291 754 361 Q754 430 719.5 480.5 Q685 531 624 558 Q563 585 484 585 Q405 585 344 558 Q283 531 249 480.5 Q215 430 215 361 Q215 291 249 240 Q283 189 344 162 Q405 135 485 135 Z " />
<glyph glyph-name="Omacron" unicode="&#x14c;" horiz-adv-x="969" d="M312 849 L651 849 L651 789 L312 789 L312 849 Z M485 -15 Q355 -15 256.5 30 Q158 75 104 160 Q50 245 50 361 Q50 475 104.5 559.5 Q159 644 257.5 689.5 Q356 735 484 735 Q613 735 711.5 689.5 Q810 644 864.5 559.5 Q919 475 919 361 Q919 245 865 160 Q811 75 713 30 Q615 -15 485 -15 Z M485 135 Q564 135 625 162 Q686 189 720 240 Q754 291 754 361 Q754 430 719.5 480.5 Q685 531 624 558 Q563 585 484 585 Q405 585 344 558 Q283 531 249 480.5 Q215 430 215 361 Q215 291 249 240 Q283 189 344 162 Q405 135 485 135 Z " />
<glyph glyph-name="Racute" unicode="&#x154;" horiz-adv-x="836" d="M393 745 L356 745 L434 920 L559 920 L393 745 Z M811 0 L616 0 L594 32 Q542 107 516 138 Q449 215 375.5 245.5 Q302 276 210 275 L210 0 L50 0 L50 720 L512 720 Q649 720 727.5 661 Q806 602 806 497 Q806 297 539 278 Q589 257 645 205.5 Q701 154 741 99 L811 0 Z M442 412 Q519 412 557 416 Q595 420 618 438 Q641 456 641 497 Q641 536 617.5 554 Q594 572 555.5 576 Q517 580 441 580 L210 580 L210 412 L442 412 Z " />
<glyph glyph-name="Rcaron" unicode="&#x158;" horiz-adv-x="836" d="M382 745 L220 920 L345 920 L398 786 L451 920 L576 920 L414 745 L382 745 Z M811 0 L616 0 L594 32 Q542 107 516 138 Q449 215 375.5 245.5 Q302 276 210 275 L210 0 L50 0 L50 720 L512 720 Q649 720 727.5 661 Q806 602 806 497 Q806 297 539 278 Q589 257 645 205.5 Q701 154 741 99 L811 0 Z M442 412 Q519 412 557 416 Q595 420 618 438 Q641 456 641 497 Q641 536 617.5 554 Q594 572 555.5 576 Q517 580 441 580 L210 580 L210 412 L442 412 Z " />
<glyph glyph-name="Rcommaaccent" unicode="&#x156;" horiz-adv-x="836" d="M811 0 L616 0 L594 32 Q542 107 516 138 Q449 215 375.5 245.5 Q302 276 210 275 L210 0 L50 0 L50 720 L512 720 Q649 720 727.5 661 Q806 602 806 497 Q806 297 539 278 Q589 257 645 205.5 Q701 154 741 99 L811 0 Z M442 412 Q519 412 557 416 Q595 420 618 438 Q641 456 641 497 Q641 536 617.5 554 Q594 572 555.5 576 Q517 580 441 580 L210 580 L210 412 L442 412 Z M368 -37 L485 -37 L369 -247 L332 -247 L368 -37 Z " />
<glyph glyph-name="Sacute" unicode="&#x15a;" horiz-adv-x="919" d="M514 920 L639 920 L473 745 L436 745 L514 920 Z M490 -15 Q356 -15 236 19 Q116 53 55 107 L92 249 Q184 186 285 158 Q386 130 520 130 Q615 130 657 153 Q699 176 699 211 Q699 244 670.5 259.5 Q642 275 599.5 279.5 Q557 284 477 287 Q445 287 429 288 Q249 294 161.5 351 Q74 408 74 518 Q74 627 168 681 Q262 735 421 735 Q676 735 847 616 L811 472 Q728 531 616 560.5 Q504 590 385 590 Q322 590 280.5 572.5 Q239 555 239 518 Q239 474 293 456.5 Q347 439 469 437 Q591 435 676.5 416 Q762 397 813 347.5 Q864 298 864 211 Q864 138 817 87.5 Q770 37 685.5 11 Q601 -15 490 -15 Z " />
<glyph glyph-name="Scedilla" unicode="&#x15e;" horiz-adv-x="919" d="M490 -15 Q356 -15 236 19 Q116 53 55 107 L92 249 Q184 186 285 158 Q386 130 520 130 Q615 130 657 153 Q699 176 699 211 Q699 244 670.5 259.5 Q642 275 599.5 279.5 Q557 284 477 287 Q445 287 429 288 Q249 294 161.5 351 Q74 408 74 518 Q74 627 168 681 Q262 735 421 735 Q676 735 847 616 L811 472 Q728 531 616 560.5 Q504 590 385 590 Q322 590 280.5 572.5 Q239 555 239 518 Q239 474 293 456.5 Q347 439 469 437 Q591 435 676.5 416 Q762 397 813 347.5 Q864 298 864 211 Q864 138 817 87.5 Q770 37 685.5 11 Q601 -15 490 -15 Z M472 -39 L509 -39 L431 -214 L306 -214 L472 -39 Z " />
<glyph glyph-name="Scommaaccent" unicode="&#x218;" horiz-adv-x="919" d="M490 -15 Q356 -15 236 19 Q116 53 55 107 L92 249 Q184 186 285 158 Q386 130 520 130 Q615 130 657 153 Q699 176 699 211 Q699 244 670.5 259.5 Q642 275 599.5 279.5 Q557 284 477 287 Q445 287 429 288 Q249 294 161.5 351 Q74 408 74 518 Q74 627 168 681 Q262 735 421 735 Q676 735 847 616 L811 472 Q728 531 616 560.5 Q504 590 385 590 Q322 590 280.5 572.5 Q239 555 239 518 Q239 474 293 456.5 Q347 439 469 437 Q591 435 676.5 416 Q762 397 813 347.5 Q864 298 864 211 Q864 138 817 87.5 Q770 37 685.5 11 Q601 -15 490 -15 Z M418 -37 L535 -37 L419 -247 L382 -247 L418 -37 Z " />
<glyph glyph-name="uni1E9E" unicode="&#x1e9e;" horiz-adv-x="997" d="M696 447 Q816 428 879 369 Q942 310 942 216 Q942 102 855 43.5 Q768 -15 594 -15 Q516 -15 444 6.5 Q372 28 324 61 L370 183 Q415 157 473.5 140.5 Q532 124 594 124 Q685 124 731 147.5 Q777 171 777 218 Q777 266 724 293.5 Q671 321 598 321 Q522 321 469 292 L394 405 L628 564 Q573 590 495 590 Q417 590 353 561 Q289 532 249.5 466.5 Q210 401 210 298 L210 0 L50 0 L50 302 Q50 451 112 548 Q174 645 274.5 690 Q375 735 495 735 Q619 735 717 694 Q815 653 866 562 L696 447 Z " />
<glyph glyph-name="Tbar" unicode="&#x166;" horiz-adv-x="945" d="M552 580 L552 338 L707 338 L707 278 L552 278 L552 0 L392 0 L392 278 L237 278 L237 338 L392 338 L392 580 L50 580 L50 720 L895 720 L895 580 L552 580 Z " />
<glyph glyph-name="Tcaron" unicode="&#x164;" horiz-adv-x="945" d="M454 745 L292 920 L417 920 L470 786 L523 920 L648 920 L486 745 L454 745 Z M895 580 L552 580 L552 0 L392 0 L392 580 L50 580 L50 720 L895 720 L895 580 Z " />
<glyph glyph-name="uni0162" unicode="&#x162;" horiz-adv-x="944" d="M894 580 L552 580 L552 0 L392 0 L392 580 L50 580 L50 720 L894 720 L894 580 Z M454 -39 L491 -39 L413 -214 L288 -214 L454 -39 Z " />
<glyph glyph-name="uni021A" unicode="&#x21a;" horiz-adv-x="945" d="M895 580 L552 580 L552 0 L392 0 L392 580 L50 580 L50 720 L895 720 L895 580 Z M413 -37 L530 -37 L414 -247 L377 -247 L413 -37 Z " />
<glyph glyph-name="Uhungarumlaut" unicode="&#x170;" horiz-adv-x="920" d="M484 913 L565 913 L410 746 L329 746 L484 913 Z M644 913 L725 913 L570 746 L489 746 L644 913 Z M460 -15 Q335 -15 242.5 25 Q150 65 100 142 Q50 219 50 328 L50 720 L210 720 L210 368 Q210 279 236.5 228.5 Q263 178 317 156.5 Q371 135 460 135 Q549 135 603 156.5 Q657 178 683.5 228.5 Q710 279 710 368 L710 720 L870 720 L870 328 Q870 219 820 142 Q770 65 677.5 25 Q585 -15 460 -15 Z " />
<glyph glyph-name="Umacron" unicode="&#x16a;" horiz-adv-x="920" d="M289 849 L628 849 L628 789 L289 789 L289 849 Z M460 -15 Q335 -15 242.5 25 Q150 65 100 142 Q50 219 50 328 L50 720 L210 720 L210 368 Q210 279 236.5 228.5 Q263 178 317 156.5 Q371 135 460 135 Q549 135 603 156.5 Q657 178 683.5 228.5 Q710 279 710 368 L710 720 L870 720 L870 328 Q870 219 820 142 Q770 65 677.5 25 Q585 -15 460 -15 Z " />
<glyph glyph-name="Uogonek" unicode="&#x172;" horiz-adv-x="920" d="M870 720 L870 328 Q870 222 822 145.5 Q774 69 685.5 28.5 Q597 -12 477 -15 L450 -81 Q445 -93 445 -105 Q445 -130 462.5 -148 Q480 -166 516 -166 Q563 -166 574 -133 Q585 -100 585 -60 L645 -79 Q645 -115 638 -144.5 Q631 -174 603 -197.5 Q575 -221 517 -221 Q453 -221 422.5 -190.5 Q392 -160 385 -119 Q384 -115 384 -106 Q384 -83 397 -48 L411 -13 Q243 -2 146.5 87 Q50 176 50 328 L50 720 L210 720 L210 368 Q210 279 236.5 228.5 Q263 178 317 156.5 Q371 135 460 135 Q549 135 603 156.5 Q657 178 683.5 228.5 Q710 279 710 368 L710 720 L870 720 Z " />
<glyph glyph-name="Uring" unicode="&#x16e;" horiz-adv-x="920" d="M460 745 Q419 745 390 774 Q361 803 361 844 Q361 885 390 914 Q419 943 460 943 Q501 943 530 914 Q559 885 559 844 Q559 803 530 774 Q501 745 460 745 Z M460 785 Q484 785 501.5 802.5 Q519 820 519 844 Q519 868 501.5 885.5 Q484 903 460 903 Q436 903 418.5 885.5 Q401 868 401 844 Q401 820 418.5 802.5 Q436 785 460 785 Z M460 -15 Q335 -15 242.5 25 Q150 65 100 142 Q50 219 50 328 L50 720 L210 720 L210 368 Q210 279 236.5 228.5 Q263 178 317 156.5 Q371 135 460 135 Q549 135 603 156.5 Q657 178 683.5 228.5 Q710 279 710 368 L710 720 L870 720 L870 328 Q870 219 820 142 Q770 65 677.5 25 Q585 -15 460 -15 Z " />
<glyph glyph-name="Wacute" unicode="&#x1e82;" horiz-adv-x="1419" d="M723 745 L686 745 L764 920 L889 920 L723 745 Z M1394 720 L1098 0 L913 0 L709 493 L506 0 L321 0 L25 720 L199 720 L414 196 L629 722 L790 722 L1005 196 L1220 720 L1394 720 Z " />
<glyph glyph-name="Wcircumflex" unicode="&#x174;" horiz-adv-x="1419" d="M653 745 L528 745 L690 920 L722 920 L884 745 L759 745 L706 879 L653 745 Z M1394 720 L1098 0 L913 0 L709 493 L506 0 L321 0 L25 720 L199 720 L414 196 L629 722 L790 722 L1005 196 L1220 720 L1394 720 Z " />
<glyph glyph-name="Wdieresis" unicode="&#x1e84;" horiz-adv-x="1419" d="M569 746 Q539 746 517.5 768.5 Q496 791 496 821 Q496 851 518 873 Q540 895 571 895 Q602 895 623.5 873 Q645 851 645 821 Q645 790 623 768 Q601 746 569 746 Z M839 746 Q809 746 787.5 768.5 Q766 791 766 821 Q766 851 788 873 Q810 895 841 895 Q871 895 893 873 Q915 851 915 821 Q915 790 892.5 768 Q870 746 839 746 Z M1394 720 L1098 0 L913 0 L709 493 L506 0 L321 0 L25 720 L199 720 L414 196 L629 722 L790 722 L1005 196 L1220 720 L1394 720 Z " />
<glyph glyph-name="Wgrave" unicode="&#x1e80;" horiz-adv-x="1419" d="M686 745 L520 920 L645 920 L723 745 L686 745 Z M1394 720 L1098 0 L913 0 L709 493 L506 0 L321 0 L25 720 L199 720 L414 196 L629 722 L790 722 L1005 196 L1220 720 L1394 720 Z " />
<glyph glyph-name="Ycircumflex" unicode="&#x176;" horiz-adv-x="936" d="M413 745 L288 745 L450 920 L482 920 L644 745 L519 745 L466 879 L413 745 Z M916 720 L548 253 L548 0 L388 0 L388 253 L20 720 L217 720 L468 395 L719 720 L916 720 Z " />
<glyph glyph-name="Ygrave" unicode="&#x1ef2;" horiz-adv-x="936" d="M290 920 L415 920 L493 745 L456 745 L290 920 Z M388 253 L20 720 L217 720 L468 395 L719 720 L916 720 L548 253 L548 0 L388 0 L388 253 Z " />
<glyph glyph-name="Zacute" unicode="&#x179;" horiz-adv-x="904" d="M457 745 L420 745 L498 920 L623 920 L457 745 Z M854 140 L854 0 L50 0 L50 117 L607 580 L50 580 L50 720 L852 720 L852 605 L299 140 L854 140 Z " />
<glyph glyph-name="Zdotaccent" unicode="&#x17b;" horiz-adv-x="904" d="M439 755 Q406 755 382.5 779 Q359 803 359 836 Q359 869 383 893 Q407 917 441 917 Q474 917 498 893 Q522 869 522 836 Q522 802 497.5 778.5 Q473 755 439 755 Z M854 140 L854 0 L50 0 L50 117 L607 580 L50 580 L50 720 L852 720 L852 605 L299 140 L854 140 Z " />
<glyph glyph-name="abreve" unicode="&#x103;" horiz-adv-x="789" d="M362 590 Q310 590 266 617.5 Q222 645 196 686 L237 717 Q286 641 361 641 L363 641 Q438 641 487 717 L528 686 Q502 645 458 617.5 Q414 590 362 590 Z M363 560 Q465 560 550.5 533 Q636 506 687.5 451.5 Q739 397 739 318 L739 0 L630 0 L596 72 Q553 28 492 7 Q431 -14 341 -14 Q201 -14 125.5 34.5 Q50 83 50 175 Q50 235 92 277.5 Q134 320 204.5 342 Q275 364 359 364 Q496 364 577 300 Q573 370 511.5 400 Q450 430 355 430 Q285 430 221.5 415 Q158 400 107 374 L57 496 Q186 560 363 560 Z M210 175 Q210 141 254 126.5 Q298 112 362 112 Q500 112 577 175 Q539 206 484.5 222.5 Q430 239 362 239 Q299 239 254.5 224 Q210 209 210 175 Z " />
<glyph glyph-name="amacron" unicode="&#x101;" horiz-adv-x="789" d="M544 606 L205 606 L205 666 L544 666 L544 606 Z M363 560 Q465 560 550.5 533 Q636 506 687.5 451.5 Q739 397 739 318 L739 0 L630 0 L596 72 Q553 28 492 7 Q431 -14 341 -14 Q201 -14 125.5 34.5 Q50 83 50 175 Q50 235 92 277.5 Q134 320 204.5 342 Q275 364 359 364 Q496 364 577 300 Q573 370 511.5 400 Q450 430 355 430 Q285 430 221.5 415 Q158 400 107 374 L57 496 Q186 560 363 560 Z M210 175 Q210 141 254 126.5 Q298 112 362 112 Q500 112 577 175 Q539 206 484.5 222.5 Q430 239 362 239 Q299 239 254.5 224 Q210 209 210 175 Z " />
<glyph glyph-name="aogonek" unicode="&#x105;" horiz-adv-x="837" d="M857 -79 Q857 -115 850 -144.5 Q843 -174 815 -197.5 Q787 -221 729 -221 Q665 -221 634.5 -190.5 Q604 -160 597 -119 Q596 -114 596 -105 Q596 -79 609 -48 L630 0 L596 72 Q553 28 492 7 Q431 -14 341 -14 Q201 -14 125.5 34.5 Q50 83 50 175 Q50 235 92 277.5 Q134 320 204.5 342 Q275 364 359 364 Q496 364 577 300 Q573 370 511.5 400 Q450 430 355 430 Q285 430 221.5 415 Q158 400 107 374 L57 496 Q186 560 363 560 Q465 560 550.5 533 Q636 506 687.5 451.5 Q739 397 739 318 L739 0 L696 0 L662 -81 Q657 -93 657 -105 Q657 -130 674.5 -148 Q692 -166 728 -166 Q775 -166 786 -133 Q797 -100 797 -60 L857 -79 Z M210 175 Q210 141 254 126.5 Q298 112 362 112 Q500 112 577 175 Q539 206 484.5 222.5 Q430 239 362 239 Q299 239 254.5 224 Q210 209 210 175 Z " />
<glyph glyph-name="cacute" unicode="&#x107;" horiz-adv-x="725" d="M456 765 L581 765 L415 590 L378 590 L456 765 Z M396 -15 Q285 -15 202.5 19.5 Q120 54 75 119.5 Q30 185 30 273 Q30 360 75 425 Q120 490 203 525.5 Q286 561 396 561 Q484 561 564.5 541 Q645 521 690 489 L645 361 Q595 390 532 408 Q469 426 413 426 Q313 426 251.5 384 Q190 342 190 273 Q190 228 218 193.5 Q246 159 296.5 140 Q347 121 413 121 Q468 121 533.5 137.5 Q599 154 645 181 L690 57 Q645 24 565.5 4.5 Q486 -15 396 -15 Z " />
<glyph glyph-name="ccaron" unicode="&#x10d;" horiz-adv-x="725" d="M376 590 L214 765 L339 765 L392 631 L445 765 L570 765 L408 590 L376 590 Z M413 121 Q468 121 533.5 137.5 Q599 154 645 181 L690 57 Q645 24 565.5 4.5 Q486 -15 396 -15 Q285 -15 202.5 19.5 Q120 54 75 119.5 Q30 185 30 273 Q30 360 75 425 Q120 490 203 525.5 Q286 561 396 561 Q484 561 564.5 541 Q645 521 690 489 L645 361 Q595 390 532 408 Q469 426 413 426 Q313 426 251.5 384 Q190 342 190 273 Q190 228 218 193.5 Q246 159 296.5 140 Q347 121 413 121 Z " />
<glyph glyph-name="cdotaccent" unicode="&#x10b;" horiz-adv-x="725" d="M394 590 Q361 590 337.5 614 Q314 638 314 671 Q314 704 338 728 Q362 752 396 752 Q429 752 453 728 Q477 704 477 671 Q477 637 452.5 613.5 Q428 590 394 590 Z M396 -15 Q285 -15 202.5 19.5 Q120 54 75 119.5 Q30 185 30 273 Q30 360 75 425 Q120 490 203 525.5 Q286 561 396 561 Q484 561 564.5 541 Q645 521 690 489 L645 361 Q595 390 532 408 Q469 426 413 426 Q313 426 251.5 384 Q190 342 190 273 Q190 228 218 193.5 Q246 159 296.5 140 Q347 121 413 121 Q468 121 533.5 137.5 Q599 154 645 181 L690 57 Q645 24 565.5 4.5 Q486 -15 396 -15 Z " />
<glyph glyph-name="dcaron" unicode="&#x10f;" horiz-adv-x="929" d="M579 720 L739 720 L739 0 L631 0 L586 95 Q554 44 491 14.5 Q428 -15 354 -15 Q255 -15 183 22 Q111 59 73 125 Q35 191 35 276 Q35 357 73.5 422 Q112 487 184.5 524 Q257 561 354 561 Q432 561 490 535 Q548 509 579 455 L579 720 Z M929 720 L835 509 L803 509 L804 720 L929 720 Z M395 105 Q479 105 529 152 Q579 199 579 276 Q579 323 556 360.5 Q533 398 491.5 419.5 Q450 441 395 441 Q302 441 248.5 395.5 Q195 350 195 276 Q195 198 247.5 151.5 Q300 105 395 105 Z " />
<glyph glyph-name="dslash" unicode="&#x111;" horiz-adv-x="863" d="M813 585 L739 585 L739 0 L631 0 L586 95 Q554 44 491 14.5 Q428 -15 354 -15 Q255 -15 183 22 Q111 59 73 125 Q35 191 35 276 Q35 357 73.5 422 Q112 487 184.5 524 Q257 561 354 561 Q432 561 490 535 Q548 509 579 455 L579 585 L507 585 L507 645 L579 645 L579 720 L739 720 L739 645 L813 645 L813 585 Z M395 105 Q479 105 529 152 Q579 199 579 276 Q579 323 556 360.5 Q533 398 491.5 419.5 Q450 441 395 441 Q302 441 248.5 395.5 Q195 350 195 276 Q195 198 247.5 151.5 Q300 105 395 105 Z " />
<glyph glyph-name="ecaron" unicode="&#x11b;" horiz-adv-x="793" d="M373 590 L211 765 L336 765 L389 631 L442 765 L567 765 L405 590 L373 590 Z M390 560 Q744 560 743 217 L189 217 Q203 166 257 140.5 Q311 115 390 115 Q479 115 541.5 129 Q604 143 649 173 L709 69 Q650 25 570.5 5 Q491 -15 389 -15 Q279 -15 198 19.5 Q117 54 73.5 118.5 Q30 183 30 270 Q30 398 117 479 Q204 560 390 560 Z M390 430 Q212 430 191 337 L581 337 Q570 384 523.5 407 Q477 430 390 430 Z " />
<glyph glyph-name="edotaccent" unicode="&#x117;" horiz-adv-x="793" d="M389 590 Q356 590 332.5 614 Q309 638 309 671 Q309 704 333 728 Q357 752 391 752 Q424 752 448 728 Q472 704 472 671 Q472 637 447.5 613.5 Q423 590 389 590 Z M390 560 Q744 560 743 217 L189 217 Q203 166 257 140.5 Q311 115 390 115 Q479 115 541.5 129 Q604 143 649 173 L709 69 Q650 25 570.5 5 Q491 -15 389 -15 Q279 -15 198 19.5 Q117 54 73.5 118.5 Q30 183 30 270 Q30 398 117 479 Q204 560 390 560 Z M390 430 Q212 430 191 337 L581 337 Q570 384 523.5 407 Q477 430 390 430 Z " />
<glyph glyph-name="emacron" unicode="&#x113;" horiz-adv-x="793" d="M551 606 L212 606 L212 666 L551 666 L551 606 Z M390 560 Q744 560 743 217 L189 217 Q203 166 257 140.5 Q311 115 390 115 Q479 115 541.5 129 Q604 143 649 173 L709 69 Q650 25 570.5 5 Q491 -15 389 -15 Q279 -15 198 19.5 Q117 54 73.5 118.5 Q30 183 30 270 Q30 398 117 479 Q204 560 390 560 Z M390 430 Q212 430 191 337 L581 337 Q570 384 523.5 407 Q477 430 390 430 Z " />
<glyph glyph-name="eogonek" unicode="&#x119;" horiz-adv-x="793" d="M390 560 Q744 560 743 217 L189 217 Q203 166 257 140.5 Q311 115 390 115 Q479 115 541.5 129 Q604 143 649 173 L709 69 Q608 -6 435 -14 L407 -81 Q402 -93 402 -105 Q402 -130 419.5 -148 Q437 -166 473 -166 Q520 -166 531 -133 Q542 -100 542 -60 L602 -79 Q602 -115 595 -144.5 Q588 -174 560 -197.5 Q532 -221 474 -221 Q410 -221 379.5 -190.5 Q349 -160 342 -119 Q341 -114 341 -105 Q341 -79 354 -48 L369 -15 Q264 -12 187.5 23.5 Q111 59 70.5 122.5 Q30 186 30 270 Q30 398 117 479 Q204 560 390 560 Z M390 430 Q212 430 191 337 L581 337 Q570 384 523.5 407 Q477 430 390 430 Z " />
<glyph glyph-name="gbreve" unicode="&#x11f;" horiz-adv-x="821" d="M363 590 Q311 590 267 617.5 Q223 645 197 686 L238 717 Q287 641 362 641 L364 641 Q439 641 488 717 L529 686 Q503 645 459 617.5 Q415 590 363 590 Z M771 545 L771 128 Q771 45 726.5 -16 Q682 -77 599 -109.5 Q516 -142 403 -142 Q293 -142 199 -116 Q105 -90 46 -41 L86 80 Q227 -12 409 -12 Q468 -12 514 4.5 Q560 21 585.5 50.5 Q611 80 611 117 L611 167 Q576 124 515 99 Q454 74 363 74 Q260 74 187 107 Q114 140 77 195 Q40 250 40 317 Q40 387 76 442 Q112 497 185 528.5 Q258 560 363 560 Q451 560 515 535 Q579 510 619 453 L654 545 L771 545 Z M395 204 Q481 204 538 234.5 Q595 265 611 317 Q595 369 538 399.5 Q481 430 395 430 Q297 430 248.5 397.5 Q200 365 200 317 Q200 269 248.5 236.5 Q297 204 395 204 Z " />
<glyph glyph-name="gcommaaccent" unicode="&#x123;" horiz-adv-x="821" d="M434 607 L317 607 L433 817 L470 817 L434 607 Z M771 545 L771 128 Q771 45 726.5 -16 Q682 -77 599 -109.5 Q516 -142 403 -142 Q293 -142 199 -116 Q105 -90 46 -41 L86 80 Q227 -12 409 -12 Q468 -12 514 4.5 Q560 21 585.5 50.5 Q611 80 611 117 L611 167 Q576 124 515 99 Q454 74 363 74 Q260 74 187 107 Q114 140 77 195 Q40 250 40 317 Q40 387 76 442 Q112 497 185 528.5 Q258 560 363 560 Q451 560 515 535 Q579 510 619 453 L654 545 L771 545 Z M395 204 Q481 204 538 234.5 Q595 265 611 317 Q595 369 538 399.5 Q481 430 395 430 Q297 430 248.5 397.5 Q200 365 200 317 Q200 269 248.5 236.5 Q297 204 395 204 Z " />
<glyph glyph-name="gdotaccent" unicode="&#x121;" horiz-adv-x="821" d="M363 590 Q330 590 306.5 614 Q283 638 283 671 Q283 704 307 728 Q331 752 365 752 Q398 752 422 728 Q446 704 446 671 Q446 637 421.5 613.5 Q397 590 363 590 Z M771 545 L771 128 Q771 45 726.5 -16 Q682 -77 599 -109.5 Q516 -142 403 -142 Q293 -142 199 -116 Q105 -90 46 -41 L86 80 Q227 -12 409 -12 Q468 -12 514 4.5 Q560 21 585.5 50.5 Q611 80 611 117 L611 167 Q576 124 515 99 Q454 74 363 74 Q260 74 187 107 Q114 140 77 195 Q40 250 40 317 Q40 387 76 442 Q112 497 185 528.5 Q258 560 363 560 Q451 560 515 535 Q579 510 619 453 L654 545 L771 545 Z M395 204 Q481 204 538 234.5 Q595 265 611 317 Q595 369 538 399.5 Q481 430 395 430 Q297 430 248.5 397.5 Q200 365 200 317 Q200 269 248.5 236.5 Q297 204 395 204 Z " />
<glyph glyph-name="hbar" unicode="&#x127;" horiz-adv-x="858" d="M528 561 Q663 561 735.5 490.5 Q808 420 808 283 L808 0 L648 0 L648 270 Q648 356 608.5 398.5 Q569 441 493 441 Q432 441 382.5 417.5 Q333 394 305 355 L305 0 L145 0 L145 570 L50 570 L50 630 L145 630 L145 720 L305 720 L305 630 L400 630 L400 570 L305 570 L305 450 Q342 498 398.5 529.5 Q455 561 528 561 Z " />
<glyph glyph-name="ij" unicode="&#x133;" horiz-adv-x="606" d="M141 570 Q103 570 76.5 597.5 Q50 625 50 665 Q50 703 78 730.5 Q106 758 145 758 Q183 758 211 730.5 Q239 703 239 665 Q239 626 210 598 Q181 570 141 570 Z M458 570 Q420 570 393.5 597.5 Q367 625 367 665 Q367 703 395 730.5 Q423 758 462 758 Q500 758 528 730.5 Q556 703 556 665 Q556 626 527 598 Q498 570 458 570 Z M236 -213 Q180 -213 135 -199 Q90 -185 62 -166 L104 -49 Q127 -63 162 -72.5 Q197 -82 221 -82 Q295 -82 338.5 -44.5 Q382 -7 382 58 L382 545 Q420 526 462 526 Q505 526 542 545 L542 68 Q542 -64 460.5 -138.5 Q379 -213 236 -213 Z M65 545 Q103 526 145 526 Q188 526 225 545 L225 0 L65 0 L65 545 Z " />
<glyph glyph-name="imacron" unicode="&#x12b;" horiz-adv-x="359" d="M10 666 L349 666 L349 606 L10 606 L10 666 Z M102 545 Q140 526 182 526 Q225 526 262 545 L262 0 L102 0 L102 545 Z " />
<glyph glyph-name="iogonek" unicode="&#x12f;" horiz-adv-x="288" d="M144 575 Q105 575 77.5 602.5 Q50 630 50 669 Q50 708 77.5 735.5 Q105 763 144 763 Q183 763 210.5 735.5 Q238 708 238 669 Q238 630 210.5 602.5 Q183 575 144 575 Z M339 -79 Q339 -115 332 -144.5 Q325 -174 297 -197.5 Q269 -221 211 -221 Q147 -221 116.5 -190.5 Q86 -160 79 -119 Q78 -114 78 -105 Q78 -79 91 -48 L112 0 L64 0 L64 545 Q102 526 144 526 Q187 526 224 545 L224 0 L178 0 L144 -81 Q139 -93 139 -105 Q139 -130 156.5 -148 Q174 -166 210 -166 Q257 -166 268 -133 Q279 -100 279 -60 L339 -79 Z " />
<glyph glyph-name="kcommaaccent" unicode="&#x137;" horiz-adv-x="720" d="M700 0 L505 0 L321 221 L210 221 L210 0 L50 0 L50 720 L210 720 L210 322 L454 544 L671 544 L430 325 L700 0 Z M297 -37 L414 -37 L298 -247 L261 -247 L297 -37 Z " />
<glyph glyph-name="lacute" unicode="&#x13a;" horiz-adv-x="301" d="M196 920 L321 920 L155 745 L118 745 L196 920 Z M50 720 L210 720 L210 0 L50 0 L50 720 Z " />
<glyph glyph-name="lcaron" unicode="&#x13e;" horiz-adv-x="464" d="M50 720 L210 720 L210 0 L50 0 L50 720 Z M289 720 L414 720 L320 509 L288 509 L289 720 Z " />
<glyph glyph-name="lcommaaccent" unicode="&#x13c;" horiz-adv-x="273" d="M63 720 L223 720 L223 0 L63 0 L63 720 Z M86 -37 L203 -37 L87 -247 L50 -247 L86 -37 Z " />
<glyph glyph-name="ldot" unicode="&#x140;" horiz-adv-x="467" d="M50 720 L210 720 L210 0 L50 0 L50 720 Z M334 295 Q301 295 277.5 319 Q254 343 254 376 Q254 409 278 433 Q302 457 336 457 Q369 457 393 433 Q417 409 417 376 Q417 342 392.5 318.5 Q368 295 334 295 Z " />
<glyph glyph-name="nacute" unicode="&#x144;" horiz-adv-x="763" d="M434 590 L397 590 L475 765 L600 765 L434 590 Z M433 561 Q568 561 640.5 490.5 Q713 420 713 283 L713 0 L553 0 L553 270 Q553 356 513.5 398.5 Q474 441 398 441 Q337 441 288 417 Q239 393 210 353 L210 0 L50 0 L50 545 L159 545 L206 445 Q242 494 300 527.5 Q358 561 433 561 Z " />
<glyph glyph-name="ncaron" unicode="&#x148;" horiz-adv-x="763" d="M397 590 L235 765 L360 765 L413 631 L466 765 L591 765 L429 590 L397 590 Z M433 561 Q568 561 640.5 490.5 Q713 420 713 283 L713 0 L553 0 L553 270 Q553 356 513.5 398.5 Q474 441 398 441 Q337 441 288 417 Q239 393 210 353 L210 0 L50 0 L50 545 L159 545 L206 445 Q242 494 300 527.5 Q358 561 433 561 Z " />
<glyph glyph-name="ncommaaccent" unicode="&#x146;" horiz-adv-x="763" d="M433 561 Q568 561 640.5 490.5 Q713 420 713 283 L713 0 L553 0 L553 270 Q553 356 513.5 398.5 Q474 441 398 441 Q337 441 288 417 Q239 393 210 353 L210 0 L50 0 L50 545 L159 545 L206 445 Q242 494 300 527.5 Q358 561 433 561 Z M327 -37 L444 -37 L328 -247 L291 -247 L327 -37 Z " />
<glyph glyph-name="eng" unicode="&#x14b;" horiz-adv-x="763" d="M433 561 Q568 561 640.5 490.5 Q713 420 713 283 L713 10 Q713 -122 631.5 -196.5 Q550 -271 407 -271 Q351 -271 306 -257 Q261 -243 233 -224 L275 -107 Q298 -121 333 -130.5 Q368 -140 392 -140 Q466 -140 509.5 -102.5 Q553 -65 553 0 L553 270 Q553 356 513.5 398.5 Q474 441 398 441 Q337 441 288 417 Q239 393 210 353 L210 0 L50 0 L50 545 L159 545 L206 445 Q242 494 300 527.5 Q358 561 433 561 Z " />
<glyph glyph-name="ohungarumlaut" unicode="&#x151;" horiz-adv-x="766" d="M424 757 L505 757 L350 590 L269 590 L424 757 Z M584 757 L665 757 L510 590 L429 590 L584 757 Z M383 -15 Q279 -15 199 20.5 Q119 56 74.5 121 Q30 186 30 273 Q30 358 74 423 Q118 488 198.5 524 Q279 560 383 560 Q487 560 567.5 524 Q648 488 692 423 Q736 358 736 273 Q736 186 691.5 121 Q647 56 567 20.5 Q487 -15 383 -15 Z M383 115 Q474 115 525 155 Q576 195 576 273 Q576 348 523.5 389 Q471 430 382 430 Q293 430 241.5 389 Q190 348 190 273 Q190 195 241 155 Q292 115 383 115 Z " />
<glyph glyph-name="omacron" unicode="&#x14d;" horiz-adv-x="766" d="M211 666 L550 666 L550 606 L211 606 L211 666 Z M383 -15 Q279 -15 199 20.5 Q119 56 74.5 121 Q30 186 30 273 Q30 358 74 423 Q118 488 198.5 524 Q279 560 383 560 Q487 560 567.5 524 Q648 488 692 423 Q736 358 736 273 Q736 186 691.5 121 Q647 56 567 20.5 Q487 -15 383 -15 Z M383 115 Q474 115 525 155 Q576 195 576 273 Q576 348 523.5 389 Q471 430 382 430 Q293 430 241.5 389 Q190 348 190 273 Q190 195 241 155 Q292 115 383 115 Z " />
<glyph glyph-name="racute" unicode="&#x155;" horiz-adv-x="563" d="M132 590 L95 590 L173 765 L298 765 L132 590 Z M399 560 Q434 560 474 549 Q514 538 543 515 L497 398 Q474 415 437 425 Q400 435 369 435 Q313 435 274 414.5 Q235 394 210 354 L210 0 L50 0 L50 545 L159 545 L205 446 Q235 498 281 529 Q327 560 399 560 Z " />
<glyph glyph-name="rcaron" unicode="&#x159;" horiz-adv-x="573" d="M107 590 L-55 765 L70 765 L123 631 L176 765 L301 765 L139 590 L107 590 Z M409 560 Q444 560 484 549 Q524 538 553 515 L507 398 Q484 415 447 425 Q410 435 379 435 Q323 435 284 414.5 Q245 394 220 354 L220 0 L60 0 L60 545 L169 545 L215 446 Q245 498 291 529 Q337 560 409 560 Z " />
<glyph glyph-name="rcommaaccent" unicode="&#x157;" horiz-adv-x="573" d="M409 560 Q444 560 484 549 Q524 538 553 515 L507 398 Q484 415 447 425 Q410 435 379 435 Q323 435 284 414.5 Q245 394 220 354 L220 0 L60 0 L60 545 L169 545 L215 446 Q245 498 291 529 Q337 560 409 560 Z M86 -37 L203 -37 L87 -247 L50 -247 L86 -37 Z " />
<glyph glyph-name="sacute" unicode="&#x15b;" horiz-adv-x="756" d="M446 765 L571 765 L405 590 L368 590 L446 765 Z M420 -15 Q313 -15 209 6.5 Q105 28 45 73 L72 201 Q214 112 419 112 Q469 112 510 123.5 Q551 135 551 162 Q551 189 519.5 198 Q488 207 419 207 Q298 207 224.5 218.5 Q151 230 107.5 268 Q64 306 64 384 Q64 437 99.5 477 Q135 517 199.5 538.5 Q264 560 349 560 Q466 560 561 535.5 Q656 511 705 469 L668 342 Q616 386 523 409.5 Q430 433 354 433 Q299 433 261.5 423 Q224 413 224 384 Q224 354 256 346 Q288 338 354 338 Q459 338 531.5 329 Q604 320 657.5 281.5 Q711 243 711 162 Q711 75 628.5 30 Q546 -15 420 -15 Z " />
<glyph glyph-name="scedilla" unicode="&#x15f;" horiz-adv-x="756" d="M420 -15 Q313 -15 209 6.5 Q105 28 45 73 L72 201 Q214 112 419 112 Q469 112 510 123.5 Q551 135 551 162 Q551 189 519.5 198 Q488 207 419 207 Q298 207 224.5 218.5 Q151 230 107.5 268 Q64 306 64 384 Q64 437 99.5 477 Q135 517 199.5 538.5 Q264 560 349 560 Q466 560 561 535.5 Q656 511 705 469 L668 342 Q616 386 523 409.5 Q430 433 354 433 Q299 433 261.5 423 Q224 413 224 384 Q224 354 256 346 Q288 338 354 338 Q459 338 531.5 329 Q604 320 657.5 281.5 Q711 243 711 162 Q711 75 628.5 30 Q546 -15 420 -15 Z M387 -39 L424 -39 L346 -214 L221 -214 L387 -39 Z " />
<glyph glyph-name="scommaaccent" unicode="&#x219;" horiz-adv-x="756" d="M420 -15 Q313 -15 209 6.5 Q105 28 45 73 L72 201 Q214 112 419 112 Q469 112 510 123.5 Q551 135 551 162 Q551 189 519.5 198 Q488 207 419 207 Q298 207 224.5 218.5 Q151 230 107.5 268 Q64 306 64 384 Q64 437 99.5 477 Q135 517 199.5 538.5 Q264 560 349 560 Q466 560 561 535.5 Q656 511 705 469 L668 342 Q616 386 523 409.5 Q430 433 354 433 Q299 433 261.5 423 Q224 413 224 384 Q224 354 256 346 Q288 338 354 338 Q459 338 531.5 329 Q604 320 657.5 281.5 Q711 243 711 162 Q711 75 628.5 30 Q546 -15 420 -15 Z M347 -37 L464 -37 L348 -247 L311 -247 L347 -37 Z " />
<glyph glyph-name="tbar" unicode="&#x167;" horiz-adv-x="632" d="M612 50 Q575 20 515 2.5 Q455 -15 392 -15 Q289 -15 235 47 Q181 109 181 222 L181 318 L86 318 L86 378 L181 378 L181 425 L30 425 L30 545 L104 545 Q136 545 158.5 567 Q181 589 181 622 L181 700 L341 700 L341 545 L556 545 L556 425 L341 425 L341 378 L436 378 L436 318 L341 318 L341 229 Q341 178 367 152 Q393 126 436 126 Q499 126 572 177 L612 50 Z " />
<glyph glyph-name="tcaron" unicode="&#x165;" horiz-adv-x="632" d="M430 801 L555 801 L461 590 L429 590 L430 801 Z M392 -15 Q289 -15 235 47 Q181 109 181 222 L181 425 L30 425 L30 545 L104 545 Q136 545 158.5 567 Q181 589 181 622 L181 700 L341 700 L341 545 L556 545 L556 425 L341 425 L341 225 Q341 174 367 148 Q393 122 436 122 Q466 122 501.5 135 Q537 148 572 173 L612 50 Q575 20 515 2.5 Q455 -15 392 -15 Z " />
<glyph glyph-name="uni0163" unicode="&#x163;" horiz-adv-x="632" d="M392 -15 Q289 -15 235 47 Q181 109 181 222 L181 425 L30 425 L30 545 L104 545 Q136 545 158.5 567 Q181 589 181 622 L181 700 L341 700 L341 545 L556 545 L556 425 L341 425 L341 225 Q341 174 367 148 Q393 122 436 122 Q466 122 501.5 135 Q537 148 572 173 L612 50 Q575 20 515 2.5 Q455 -15 392 -15 Z M384 -39 L421 -39 L343 -214 L218 -214 L384 -39 Z " />
<glyph glyph-name="uni021B" unicode="&#x21b;" horiz-adv-x="632" d="M392 -15 Q289 -15 235 47 Q181 109 181 222 L181 425 L30 425 L30 545 L104 545 Q136 545 158.5 567 Q181 589 181 622 L181 700 L341 700 L341 545 L556 545 L556 425 L341 425 L341 225 Q341 174 367 148 Q393 122 436 122 Q466 122 501.5 135 Q537 148 572 173 L612 50 Q575 20 515 2.5 Q455 -15 392 -15 Z M338 -37 L455 -37 L339 -247 L302 -247 L338 -37 Z " />
<glyph glyph-name="uhungarumlaut" unicode="&#x171;" horiz-adv-x="763" d="M344 590 L263 590 L418 757 L499 757 L344 590 Z M423 590 L578 757 L659 757 L504 590 L423 590 Z M713 545 L713 0 L604 0 L557 100 Q521 51 463 17.5 Q405 -16 330 -16 Q195 -16 122.5 54.5 Q50 125 50 262 L50 545 L210 545 L210 275 Q210 189 249.5 146.5 Q289 104 365 104 Q426 104 475 128 Q524 152 553 192 L553 545 L713 545 Z " />
<glyph glyph-name="umacron" unicode="&#x16b;" horiz-adv-x="763" d="M549 606 L210 606 L210 666 L549 666 L549 606 Z M713 545 L713 0 L604 0 L557 100 Q521 51 463 17.5 Q405 -16 330 -16 Q195 -16 122.5 54.5 Q50 125 50 262 L50 545 L210 545 L210 275 Q210 189 249.5 146.5 Q289 104 365 104 Q426 104 475 128 Q524 152 553 192 L553 545 L713 545 Z " />
<glyph glyph-name="uogonek" unicode="&#x173;" horiz-adv-x="763" d="M823 -79 Q822 -117 815.5 -145.5 Q809 -174 781 -197.5 Q753 -221 695 -221 Q631 -221 600.5 -190.5 Q570 -160 563 -119 Q562 -114 562 -105 Q562 -79 575 -48 L596 0 L604 0 L557 100 Q521 51 463 17.5 Q405 -16 330 -16 Q195 -16 122.5 54.5 Q50 125 50 262 L50 545 L210 545 L210 275 Q210 189 249.5 146.5 Q289 104 365 104 Q426 104 475 128 Q524 152 553 192 L553 545 L713 545 L713 0 L662 0 L628 -81 Q623 -93 623 -105 Q623 -130 640.5 -148 Q658 -166 694 -166 Q741 -166 752 -133 Q763 -100 763 -60 L823 -79 Z " />
<glyph glyph-name="uring" unicode="&#x16f;" horiz-adv-x="763" d="M379 590 Q338 590 309 619 Q280 648 280 689 Q280 730 309 759 Q338 788 379 788 Q420 788 449 759 Q478 730 478 689 Q478 648 449 619 Q420 590 379 590 Z M379 748 Q355 748 337.5 730.5 Q320 713 320 689 Q320 665 337.5 647.5 Q355 630 379 630 Q403 630 420.5 647.5 Q438 665 438 689 Q438 713 420.5 730.5 Q403 748 379 748 Z M713 545 L713 0 L604 0 L557 100 Q521 51 463 17.5 Q405 -16 330 -16 Q195 -16 122.5 54.5 Q50 125 50 262 L50 545 L210 545 L210 275 Q210 189 249.5 146.5 Q289 104 365 104 Q426 104 475 128 Q524 152 553 192 L553 545 L713 545 Z " />
<glyph glyph-name="wacute" unicode="&#x1e83;" horiz-adv-x="1202" d="M626 590 L589 590 L667 765 L792 765 L626 590 Z M1187 545 L924 0 L747 0 L602 301 L456 0 L279 0 L15 546 L189 545 L367 167 L545 545 L658 545 L836 167 L1013 545 L1187 545 Z " />
<glyph glyph-name="wcircumflex" unicode="&#x175;" horiz-adv-x="1202" d="M546 590 L421 590 L583 765 L615 765 L777 590 L652 590 L599 724 L546 590 Z M1187 545 L924 0 L747 0 L602 301 L456 0 L279 0 L15 546 L189 545 L367 167 L545 545 L658 545 L836 167 L1013 545 L1187 545 Z " />
<glyph glyph-name="wdieresis" unicode="&#x1e85;" horiz-adv-x="1202" d="M461 590 Q431 590 409.5 612.5 Q388 635 388 665 Q388 695 410 717 Q432 739 463 739 Q494 739 515.5 717 Q537 695 537 665 Q537 634 515 612 Q493 590 461 590 Z M731 590 Q701 590 679.5 612.5 Q658 635 658 665 Q658 695 680 717 Q702 739 733 739 Q763 739 785 717 Q807 695 807 665 Q807 634 784.5 612 Q762 590 731 590 Z M1187 545 L924 0 L747 0 L602 301 L456 0 L279 0 L15 546 L189 545 L367 167 L545 545 L658 545 L836 167 L1013 545 L1187 545 Z " />
<glyph glyph-name="wgrave" unicode="&#x1e81;" horiz-adv-x="1202" d="M581 590 L415 765 L540 765 L618 590 L581 590 Z M1187 545 L924 0 L747 0 L602 301 L456 0 L279 0 L15 546 L189 545 L367 167 L545 545 L658 545 L836 167 L1013 545 L1187 545 Z " />
<glyph glyph-name="ycircumflex" unicode="&#x177;" horiz-adv-x="831" d="M359 590 L234 590 L396 765 L428 765 L590 590 L465 590 L412 724 L359 590 Z M816 545 L410 -127 L229 -127 L325 33 L15 545 L196 545 L414 184 L634 545 L816 545 Z " />
<glyph glyph-name="ygrave" unicode="&#x1ef3;" horiz-adv-x="831" d="M408 590 L242 765 L367 765 L445 590 L408 590 Z M816 545 L410 -127 L229 -127 L325 33 L15 545 L196 545 L414 184 L634 545 L816 545 Z " />
<glyph glyph-name="zacute" unicode="&#x17a;" horiz-adv-x="773" d="M393 590 L356 590 L434 765 L559 765 L393 590 Z M722 432 L311 140 L722 140 L722 0 L50 0 L50 114 L460 405 L55 405 L55 545 L723 545 L722 432 Z " />
<glyph glyph-name="zdotaccent" unicode="&#x17c;" horiz-adv-x="773" d="M393 590 Q360 590 336.5 614 Q313 638 313 671 Q313 704 337 728 Q361 752 395 752 Q428 752 452 728 Q476 704 476 671 Q476 637 451.5 613.5 Q427 590 393 590 Z M722 432 L311 140 L722 140 L722 0 L50 0 L50 114 L460 405 L55 405 L55 545 L723 545 L722 432 Z " />
<glyph glyph-name="fi" unicode="&#xfb01;" horiz-adv-x="823" d="M600 545 Q638 526 680 526 Q723 526 760 545 L760 0 L600 0 L600 425 L325 425 L325 0 L165 0 L165 425 L35 425 L36 545 L166 545 Q166 626 202.5 683 Q239 740 299.5 769 Q360 798 432 798 Q505 798 576 767 Q556 747 545 718.5 Q534 690 534 661 Q534 647 535 640 Q495 657 450 657 Q396 657 360.5 629.5 Q325 602 325 545 L600 545 Z M679 575 Q640 575 612.5 602.5 Q585 630 585 669 Q585 708 612.5 735.5 Q640 763 679 763 Q718 763 745.5 735.5 Q773 708 773 669 Q773 630 745.5 602.5 Q718 575 679 575 Z " />
<glyph glyph-name="fl" unicode="&#xfb02;" horiz-adv-x="793" d="M743 720 L743 0 L583 0 L583 425 L325 425 L325 0 L165 0 L165 425 L35 425 L36 545 L167 545 Q165 625 194 681 Q223 737 275 764.5 Q327 792 391 792 Q478 792 564 745 L518 622 Q453 651 407 651 Q319 651 326 545 L583 545 L583 720 L743 720 Z " />
<glyph glyph-name="uni203D" unicode="&#x203d;" horiz-adv-x="780" d="M715 603 Q725 574 725 549 Q725 512 705 481.5 Q685 451 656.5 429 Q628 407 579 375 Q532 344 505.5 323.5 Q479 303 460.5 276 Q442 249 442 216 L442 203 Q422 219 388 219 Q353 219 333 203 L314 566 Q176 529 94 455 L55 607 Q104 644 169.5 672.5 Q235 701 306 716 L304 758 L471 758 L470 734 Q571 732 631 701 Q691 670 715 603 Z M452 408 Q469 428 505 452 Q535 474 549.5 489.5 Q564 505 564 524 Q564 535 560 544 Q551 565 528.5 575 Q506 585 462 586 L452 408 Z M384 176 Q420 176 446 150.5 Q472 125 472 89 Q472 52 446 26 Q420 0 384 0 Q347 0 321 26 Q295 52 295 89 Q295 125 321 150.5 Q347 176 384 176 Z " />
<glyph glyph-name="arrowup" unicode="&#x2191;" horiz-adv-x="693" d="M377 681 Q378 623 404.5 569.5 Q431 516 480 482.5 Q529 449 593 449 L593 394 Q528 394 471.5 423 Q415 452 377 503 L376 0 L316 0 L317 503 Q278 452 221.5 423 Q165 394 100 394 L100 449 Q165 450 214.5 483.5 Q264 517 290.5 570.5 Q317 624 317 683 L317 684 L377 684 L377 681 Z " />
<glyph glyph-name="uni2197" unicode="&#x2197;" horiz-adv-x="725" d="M625 521 Q591 487 571.5 441.5 Q552 396 552 349 Q552 263 612 202 L574 163 Q535 202 515 252 Q495 302 495 356 Q495 381 497 393 L142 38 L100 81 L454 435 Q442 433 417 433 Q363 433 313 453 Q263 473 224 512 L263 551 Q327 490 410 490 Q457 490 503 510 Q549 530 583 564 L625 521 Z " />
<glyph glyph-name="arrowright" unicode="&#x2192;" horiz-adv-x="933" d="M598 548 Q599 483 633 433.5 Q667 384 720.5 357.5 Q774 331 833 331 L833 271 Q774 271 720.5 244.5 Q667 218 633 168.5 Q599 119 598 54 L543 54 Q543 119 572 175.5 Q601 232 652 271 L100 271 L100 331 L652 331 Q601 370 572 426.5 Q543 483 543 548 L598 548 Z " />
<glyph glyph-name="uni2198" unicode="&#x2198;" horiz-adv-x="725" d="M613 400 Q552 336 552 252 Q552 205 571.5 159.5 Q591 114 625 80 L583 38 Q549 72 503.5 91.5 Q458 111 410 111 Q326 111 263 51 L224 90 Q263 129 313 149 Q363 169 417 169 Q436 169 455 166 L100 521 L142 563 L498 207 Q495 228 495 248 Q495 301 515 350.5 Q535 400 574 439 L613 400 Z " />
<glyph glyph-name="arrowdown" unicode="&#x2193;" horiz-adv-x="694" d="M377 182 Q416 233 472.5 262 Q529 291 594 291 L594 236 Q529 235 479.5 200.5 Q430 166 403.5 112.5 Q377 59 377 0 L317 0 Q317 59 290.5 112.5 Q264 166 214.5 200 Q165 234 100 235 L100 290 Q165 290 221.5 261 Q278 232 317 181 L317 684 L377 684 L377 182 Z " />
<glyph glyph-name="uni2199" unicode="&#x2199;" horiz-adv-x="725" d="M269 166 Q290 169 310 169 Q363 169 412.5 149 Q462 129 501 90 L462 51 Q398 112 314 112 Q267 112 221.5 92.5 Q176 73 142 39 L100 81 Q134 115 153.5 160.5 Q173 206 173 254 Q173 338 113 401 L152 440 Q191 401 211 351 Q231 301 231 247 Q231 229 228 209 L583 564 L625 522 L269 166 Z " />
<glyph glyph-name="arrowleft" unicode="&#x2190;" horiz-adv-x="933" d="M833 271 L281 271 Q332 232 361 175.5 Q390 119 390 54 L335 54 Q334 119 300 168.5 Q266 218 212.5 244.5 Q159 271 100 271 L100 331 Q159 331 212.5 357.5 Q266 384 300 433.5 Q334 483 335 548 L390 548 Q390 483 361 426.5 Q332 370 281 331 L833 331 L833 271 Z " />
<glyph glyph-name="uni2196" unicode="&#x2196;" horiz-adv-x="725" d="M583 38 L228 393 Q230 381 230 356 Q230 302 210 252 Q190 202 151 163 L113 202 Q173 263 173 349 Q173 396 153.5 441.5 Q134 487 100 521 L142 564 Q176 530 222 510 Q268 490 315 490 Q398 490 462 551 L501 512 Q462 473 412 453 Q362 433 308 433 Q283 433 271 435 L625 81 L583 38 Z " />
<glyph glyph-name="ff" unicode="&#xfb00;" horiz-adv-x="997" d="M916 591 Q889 612 855.5 624 Q822 636 790 636 Q748 636 721.5 613.5 Q695 591 695 545 L845 545 L845 425 L695 425 L695 0 L535 0 L535 425 L325 425 L325 0 L165 0 L165 425 L35 425 L36 545 L166 545 Q166 624 201.5 679 Q237 734 296 762 Q355 790 425 790 Q476 790 527.5 775 Q579 760 623 731 Q682 772 765 772 Q867 772 962 714 L916 591 Z M536 545 Q536 586 545 617 Q523 633 493 643 Q463 653 433 653 Q386 653 355.5 626.5 Q325 600 325 545 L536 545 Z " />
<glyph glyph-name="ffi" unicode="&#xfb03;" horiz-adv-x="1193" d="M970 545 Q1008 526 1050 526 Q1093 526 1130 545 L1130 0 L970 0 L970 425 L695 425 L695 0 L535 0 L535 425 L325 425 L325 0 L165 0 L165 425 L35 425 L36 545 L166 545 Q166 624 201.5 679.5 Q237 735 295.5 763 Q354 791 424 791 Q474 791 523.5 777 Q573 763 617 735 Q653 766 700.5 782 Q748 798 801 798 Q878 798 946 767 Q926 747 915 718.5 Q904 690 904 661 Q904 647 905 640 Q865 657 820 657 Q766 657 730.5 629.5 Q695 602 695 545 L970 545 Z M1049 575 Q1010 575 982.5 602.5 Q955 630 955 669 Q955 708 982.5 735.5 Q1010 763 1049 763 Q1088 763 1115.5 735.5 Q1143 708 1143 669 Q1143 630 1115.5 602.5 Q1088 575 1049 575 Z M536 545 Q536 584 545 618 Q524 634 494 643.5 Q464 653 434 653 Q387 653 356 627 Q325 601 325 545 L536 545 Z " />
<glyph glyph-name="ffl" unicode="&#xfb04;" horiz-adv-x="1163" d="M1113 720 L1113 0 L953 0 L953 425 L695 425 L695 0 L535 0 L535 425 L325 425 L325 0 L165 0 L165 425 L35 425 L36 545 L166 545 Q166 624 201 679 Q236 734 295 762 Q354 790 424 790 Q471 790 519 777 Q567 764 609 739 Q668 792 761 792 Q848 792 934 745 L888 622 Q823 651 777 651 Q689 651 696 545 L953 545 L953 720 L1113 720 Z M537 545 Q535 586 543 619 Q522 635 492.5 644 Q463 653 434 653 Q387 653 356 627 Q325 601 325 545 L537 545 Z " />
</font>
</svg>
